<?xml version="1.0" encoding="UTF-8"?>
<svg xmlns="http://www.w3.org/2000/svg" width="325" height="333" viewBox="0 0 325 333" fill="none">
  <g clip-path="url(#clip0_214_5081)">
    <g opacity="0.5">
      <path d="M515.758 311.563C515.71 311.773 515.655 311.981 515.604 312.189C515.828 312.186 516.051 312.182 516.272 312.178C516.322 311.971 516.37 311.764 516.416 311.555C516.2 311.559 515.976 311.559 515.758 311.563ZM495.54 0.876648C495.632 0.675201 495.725 0.475739 495.816 0.278259C495.625 0.180542 495.433 0.0907593 495.241 0C495.152 0.191498 495.062 0.382996 494.972 0.579468C495.164 0.671204 495.35 0.7789 495.54 0.876648ZM-11.9949 320.613C-9.40486 320.613 -6.97862 321.696 -5.16647 323.662L0.154358 329.431C1.68909 331.095 3.51129 331.877 5.29327 331.636C7.07326 331.393 8.61703 330.151 9.64221 328.138L13.1951 321.158C14.4062 318.779 16.4465 317.086 18.9411 316.395C21.4347 315.698 24.0639 316.093 26.3475 317.501L33.0392 321.634C34.9689 322.824 36.9419 323.094 38.5862 322.38C40.2335 321.669 41.3823 320.06 41.8225 317.849L43.3472 310.176C43.8668 307.559 45.3724 305.383 47.5866 304.046C49.7967 302.712 52.4371 302.386 55.0171 303.134L62.5842 305.321C64.7632 305.951 66.7322 305.679 68.1272 304.554C69.5202 303.43 70.1906 301.571 70.0127 299.324L69.3936 291.527C69.1825 288.869 70.0408 286.371 71.8077 284.493C73.5757 282.614 76.0622 281.59 78.7156 281.623L86.5974 281.704H86.6928C88.9211 281.704 90.7071 280.916 91.7282 279.479C92.7635 278.023 92.9032 276.055 92.1202 273.939L89.4045 266.598C88.4788 264.094 88.6256 261.458 89.8186 259.177C91.0096 256.896 93.0951 255.256 95.6892 254.565L103.299 252.532C105.492 251.946 107.032 250.699 107.634 249.019C108.235 247.34 107.834 245.407 106.505 243.578L101.895 237.234C100.323 235.073 99.7477 232.497 100.274 229.98C100.802 227.463 102.364 225.329 104.674 223.965L111.45 219.971C113.404 218.818 114.546 217.207 114.669 215.427C114.792 213.649 113.88 211.895 112.102 210.491L105.939 205.619C103.837 203.958 102.582 201.631 102.406 199.067C102.229 196.502 103.153 194.026 105.006 192.098L110.445 186.437C112.013 184.804 112.675 182.945 112.309 181.2C111.944 179.453 110.589 178.01 108.496 177.132L101.236 174.09C98.7607 173.054 96.9194 171.147 96.052 168.726C95.1857 166.305 95.4007 163.674 96.6621 161.32L100.36 154.414C101.426 152.424 101.557 150.454 100.731 148.87C99.9034 147.288 98.2069 146.261 95.9525 145.976L88.1341 144.992C85.4697 144.657 83.1791 143.315 81.6856 141.214C80.192 139.115 79.6845 136.525 80.2584 133.919L81.9409 126.278C82.4263 124.076 82.0182 122.146 80.7921 120.843C79.5649 119.54 77.6512 119.008 75.4049 119.334L67.6086 120.478C64.9552 120.869 62.3812 120.191 60.3711 118.568C58.3609 116.946 57.1699 114.587 57.0131 111.925L56.5558 104.118C56.4241 101.867 55.5065 100.118 53.9718 99.1913C52.435 98.2638 50.448 98.2608 48.3736 99.1803L41.1772 102.369C38.7219 103.458 36.0625 103.489 33.6895 102.468C31.3135 101.443 29.5235 99.4905 28.6501 96.9713L26.0872 89.5762C25.3474 87.444 23.9886 86.0039 22.2588 85.5232C20.5251 85.0365 18.6135 85.571 16.8656 87.0121L10.8031 92.0087C8.73766 93.7131 6.18477 94.4511 3.62083 94.109C1.05389 93.759 -1.20047 92.3577 -2.72818 90.1627L-7.20677 83.728C-8.49829 81.873 -10.1979 80.8508 -11.9949 80.8508C-13.791 80.8508 -15.4916 81.873 -16.7831 83.728L-21.2617 90.1627C-22.7884 92.3577 -25.0437 93.759 -27.6107 94.109C-30.1746 94.4591 -32.7265 93.7131 -34.7929 92.0087L-40.8535 87.0121C-42.6033 85.571 -44.5129 85.0385 -46.2487 85.5232C-47.9784 86.0039 -49.3373 87.444 -50.077 89.5762L-52.6399 96.9713C-53.5133 99.4905 -55.3024 101.443 -57.6783 102.468C-60.0543 103.49 -62.7127 103.456 -65.1671 102.369L-72.3634 99.1803C-74.4379 98.2608 -76.4259 98.2638 -77.9606 99.1913C-79.4964 100.118 -80.413 101.867 -80.5457 104.118L-81.003 111.925C-81.1598 114.587 -82.3518 116.946 -84.3609 118.568C-86.3702 120.189 -88.9391 120.869 -91.5982 120.478L-99.3941 119.334C-101.645 119.01 -103.557 119.542 -104.781 120.843C-106.008 122.146 -106.416 124.076 -105.931 126.278L-104.248 133.919C-103.674 136.525 -104.181 139.115 -105.675 141.214C-107.169 143.315 -109.459 144.657 -112.124 144.992L-119.942 145.976C-122.197 146.261 -123.894 147.288 -124.72 148.87C-125.547 150.454 -125.415 152.424 -124.349 154.414L-120.651 161.32C-119.391 163.674 -119.175 166.305 -120.041 168.726C-120.909 171.147 -122.75 173.054 -125.224 174.09L-132.486 177.132C-134.579 178.01 -135.934 179.453 -136.299 181.2C-136.664 182.945 -136.002 184.804 -134.434 186.437L-128.996 192.098C-127.142 194.026 -126.219 196.502 -126.396 199.067C-126.572 201.631 -127.827 203.958 -129.928 205.619L-136.092 210.491C-137.869 211.895 -138.781 213.649 -138.658 215.427C-138.536 217.207 -137.393 218.818 -135.439 219.969L-128.663 223.967C-126.353 225.329 -124.791 227.463 -124.264 229.98C-123.737 232.497 -124.312 235.073 -125.884 237.234L-130.495 243.578C-131.824 245.407 -132.225 247.34 -131.624 249.019C-131.022 250.699 -129.481 251.946 -127.288 252.53L-119.678 254.566C-117.084 255.256 -114.999 256.896 -113.808 259.177C-112.616 261.458 -112.469 264.094 -113.394 266.598L-116.109 273.939C-116.892 276.055 -116.753 278.023 -115.718 279.479C-114.682 280.936 -112.829 281.646 -110.586 281.704L-102.707 281.623H-102.601C-99.9552 281.623 -97.5426 282.639 -95.7975 284.493C-94.03 286.371 -93.1722 288.869 -93.3834 291.527L-94.0017 299.324C-94.1799 301.571 -93.5102 303.43 -92.1164 304.554C-90.7243 305.679 -88.7566 305.951 -86.5733 305.321L-79.0059 303.134C-76.4259 302.38 -73.7886 302.712 -71.5764 304.046C-69.3623 305.383 -67.8567 307.559 -67.3371 310.176L-65.8124 317.849C-65.3731 320.06 -64.2234 321.669 -62.576 322.38C-60.9267 323.094 -58.9578 322.826 -57.0291 321.634L-50.3373 317.501C-48.0538 316.093 -45.4225 315.698 -42.9309 316.395C-40.4364 317.086 -38.3961 318.779 -37.185 321.158L-33.6311 328.138C-32.6069 330.151 -31.0621 331.393 -29.2831 331.636C-27.4981 331.875 -25.6769 331.095 -24.1432 329.431L-18.8234 323.662C-17.0102 321.696 -14.585 320.613 -11.9949 320.613ZM4.64702 333C2.6992 333 0.782516 332.07 -0.827606 330.324L-6.14743 324.554C-7.70528 322.863 -9.78276 321.932 -11.9949 321.932C-14.2071 321.932 -16.2835 322.863 -17.8414 324.552L-23.1622 330.324C-24.9995 332.317 -27.2308 333.245 -29.463 332.942C-31.6892 332.64 -33.5908 331.146 -34.819 328.734L-38.373 321.753C-39.4132 319.709 -41.16 318.258 -43.2898 317.666C-45.4175 317.068 -47.6719 317.411 -49.6338 318.624L-56.3255 322.756C-58.6382 324.181 -61.0463 324.477 -63.1057 323.591C-65.1671 322.702 -66.5913 320.754 -67.1179 318.104L-68.6416 310.431C-69.0889 308.181 -70.3764 306.316 -72.2669 305.176C-74.1554 304.033 -76.4179 303.759 -78.634 304.399L-86.2007 306.587C-88.817 307.347 -91.2139 306.986 -92.957 305.578C-94.6994 304.172 -95.5419 301.913 -95.3283 299.22L-94.7104 291.424C-94.5286 289.141 -95.2608 286.999 -96.7696 285.395C-98.2799 283.79 -100.307 282.886 -102.693 282.942L-110.572 283.023C-113.356 282.996 -115.509 282.062 -116.804 280.242C-118.099 278.42 -118.296 276.019 -117.359 273.483L-114.643 266.143C-113.849 263.992 -113.97 261.733 -114.989 259.785C-116.007 257.835 -117.795 256.435 -120.023 255.841L-127.633 253.806C-130.262 253.105 -132.125 251.562 -132.877 249.462C-133.63 247.359 -133.167 244.996 -131.574 242.807L-126.963 236.463C-125.613 234.605 -125.117 232.399 -125.567 230.249C-126.017 228.1 -127.358 226.272 -129.342 225.103L-136.118 221.105C-138.46 219.726 -139.833 217.742 -139.986 215.516C-140.14 213.292 -139.05 211.141 -136.921 209.458L-130.758 204.585C-128.951 203.158 -127.874 201.167 -127.723 198.975C-127.571 196.785 -128.366 194.668 -129.959 193.008L-135.398 187.348C-137.276 185.393 -138.059 183.114 -137.602 180.932C-137.144 178.749 -135.511 176.967 -133.003 175.916L-125.742 172.874C-123.616 171.984 -122.036 170.353 -121.296 168.284C-120.555 166.215 -120.744 163.963 -121.826 161.94L-125.524 155.036C-126.802 152.648 -126.935 150.242 -125.901 148.263C-124.868 146.284 -122.811 145.008 -120.11 144.667L-112.292 143.682C-110.002 143.394 -108.039 142.248 -106.763 140.453C-105.486 138.659 -105.055 136.438 -105.548 134.202L-107.23 126.561C-107.812 123.923 -107.287 121.57 -105.754 119.941C-104.221 118.312 -101.895 117.631 -99.1991 118.028L-91.4027 119.172C-89.1197 119.499 -86.9168 118.929 -85.2007 117.544C-83.4845 116.158 -82.4653 114.136 -82.3317 111.85L-81.8734 104.043C-81.7166 101.345 -80.5728 99.2222 -78.6521 98.0633C-76.7334 96.9044 -74.3062 96.8736 -71.8207 97.9756L-64.6244 101.164C-62.5177 102.095 -60.2402 102.132 -58.208 101.256C-56.1798 100.382 -54.6491 98.7066 -53.8973 96.5404L-51.3343 89.1454C-50.4499 86.5923 -48.7704 84.853 -46.6075 84.2516C-44.4486 83.6472 -42.0987 84.2696 -40.0042 85.9969L-33.9426 90.9934C-32.1667 92.4575 -29.9816 93.0967 -27.7906 92.7985C-25.5995 92.5023 -23.6688 91.2986 -22.3572 89.4137L-17.8786 82.978C-16.3308 80.754 -14.2413 79.5314 -11.9949 79.5314C-9.7486 79.5314 -7.65906 80.754 -6.11125 82.978L-1.63266 89.4137C-0.320038 91.2986 1.6097 92.5023 3.80176 92.7985C5.98979 93.0967 8.17581 92.4575 9.95177 90.9934L16.0154 85.9969C18.1089 84.2696 20.4517 83.6472 22.6176 84.2516C24.7816 84.853 26.46 86.5923 27.3455 89.1454L29.9074 96.5404C30.6592 98.7066 32.1899 100.382 34.2182 101.256C36.2484 102.132 38.5259 102.095 40.6355 101.164L47.8318 97.9756C50.3164 96.8755 52.7446 96.9064 54.6623 98.0633C56.583 99.2222 57.7278 101.345 57.8845 104.043L58.3418 111.85C58.4755 114.136 59.4946 116.158 61.2113 117.544C62.927 118.929 65.1281 119.5 67.4136 119.172L75.2099 118.028C77.8985 117.631 80.2302 118.312 81.765 119.941C83.2977 121.57 83.8223 123.923 83.2404 126.561L81.5579 134.202C81.0654 136.438 81.4966 138.659 82.772 140.453C84.0485 142.248 86.0124 143.394 88.3029 143.682L96.1204 144.667C98.822 145.008 100.879 146.284 101.912 148.263C102.946 150.242 102.811 152.648 101.534 155.036L97.837 161.94C96.7546 163.963 96.5656 166.215 97.3064 168.284C98.0461 170.353 99.6261 171.984 101.754 172.874L109.013 175.916C111.522 176.967 113.154 178.749 113.613 180.932C114.07 183.114 113.287 185.393 111.408 187.348L105.969 193.008C104.376 194.668 103.582 196.785 103.734 198.975C103.885 201.167 104.962 203.158 106.768 204.585L112.931 209.458C115.061 211.141 116.149 213.292 115.997 215.516C115.844 217.742 114.47 219.726 112.129 221.107L105.353 225.101C103.369 226.272 102.027 228.1 101.577 230.249C101.128 232.399 101.623 234.605 102.974 236.463L107.584 242.807C109.177 244.996 109.641 247.359 108.888 249.462C108.136 251.562 106.273 253.105 103.644 253.806L96.0339 255.839C93.8057 256.435 92.0167 257.835 90.9996 259.783C89.9804 261.733 89.8578 263.992 90.6528 266.143L93.3685 273.483C94.3072 276.019 94.1102 278.42 92.8147 280.242C91.5192 282.062 89.304 283.068 86.5833 283.023L78.7025 282.942C76.3627 282.877 74.2903 283.79 72.7807 285.395C71.2711 286.999 70.5394 289.141 70.7203 291.424L71.3384 299.22C71.5525 301.913 70.7102 304.172 68.9674 305.578C67.2246 306.986 64.8245 307.345 62.2113 306.587L54.6442 304.399C52.429 303.759 50.1666 304.033 48.2781 305.176C46.3865 306.316 45.1 308.181 44.6518 310.431L43.1271 318.104C42.6015 320.754 41.1772 322.702 39.1169 323.591C37.0575 324.477 34.6493 324.181 32.3367 322.756L25.6439 318.624C23.684 317.413 21.4307 317.068 19.2999 317.666C17.1702 318.258 15.4244 319.709 14.3831 321.753L10.8292 328.734C9.601 331.146 7.70042 332.64 5.4742 332.942C5.19881 332.981 4.9214 333 4.64702 333Z" fill="url(#paint0_linear_214_5081)"></path>
      <path d="M-12.3314 315.051C-9.98642 315.051 -7.78733 316.034 -6.14254 317.822L-1.11261 323.288C0.421524 324.953 2.25745 325.724 4.06419 325.488C5.86893 325.242 7.42821 323.996 8.45129 321.98L11.8123 315.369C12.9118 313.207 14.7608 311.67 17.0193 311.04C19.2767 310.415 21.6599 310.771 23.7312 312.049L30.0589 315.962C31.9874 317.158 33.9691 317.415 35.6411 316.694C37.312 315.973 38.4729 314.356 38.9126 312.141L40.3542 304.873C40.826 302.497 42.1891 300.52 44.194 299.311C46.1989 298.097 48.5901 297.802 50.9311 298.481L58.0847 300.553C60.2646 301.186 62.2454 300.901 63.6588 299.762C65.0712 298.618 65.7523 296.749 65.5742 294.497L64.9897 287.114C64.7986 284.697 65.5742 282.43 67.1768 280.726C68.7551 279.044 70.9422 278.122 73.3414 278.122H73.438L80.8893 278.197C80.9215 278.199 80.9537 278.199 80.9859 278.199C83.2132 278.199 85.0048 277.398 86.041 275.94C87.0912 274.461 87.2391 272.48 86.4565 270.359L83.8892 263.406C83.0492 261.131 83.181 258.738 84.2614 256.669C85.3408 254.599 87.2311 253.112 89.5841 252.484L96.7799 250.558C98.974 249.971 100.518 248.707 101.129 247C101.738 245.296 101.342 243.347 100.013 241.517L95.6532 235.509C94.2277 233.544 93.7056 231.207 94.1824 228.923C94.6593 226.639 96.0767 224.701 98.1712 223.464L104.578 219.681C106.531 218.528 107.675 216.898 107.799 215.092C107.924 213.285 107.014 211.516 105.237 210.111L99.4075 205.493C97.5022 203.984 96.3644 201.871 96.2045 199.544C96.0435 197.217 96.8825 194.972 98.5635 193.221L103.706 187.859C105.273 186.224 105.932 184.347 105.561 182.574C105.191 180.801 103.834 179.343 101.741 178.463L94.8766 175.582C92.6312 174.641 90.9613 172.912 90.1756 170.714C89.3909 168.516 89.5881 166.129 90.7319 163.991L94.2277 157.45C95.2931 155.456 95.4178 153.472 94.5798 151.865C93.7428 150.257 92.0397 149.214 89.7853 148.93L82.3933 147.997C79.9759 147.691 77.8996 146.474 76.5465 144.571C75.1935 142.665 74.7347 140.312 75.2548 137.947L76.8453 130.711C77.3302 128.504 76.9137 126.56 75.6693 125.237C74.4269 123.916 72.5045 123.372 70.2561 123.699L62.8842 124.78C60.4719 125.138 58.144 124.52 56.3242 123.049C54.5044 121.579 53.4249 119.436 53.2831 117.019L52.8495 109.625C52.7187 107.37 51.7892 105.609 50.2319 104.669C48.6757 103.726 46.6768 103.719 44.6024 104.638L37.7979 107.658C35.5737 108.647 33.1644 108.677 31.0105 107.75C28.8587 106.82 27.2371 105.048 26.4444 102.758L24.022 95.7525C23.2826 93.6188 21.9104 92.173 20.156 91.683C18.4015 91.1961 16.473 91.721 14.7246 93.1648L8.99252 97.8972C7.11836 99.446 4.80258 100.128 2.48178 99.8049C0.157944 99.487 -1.8842 98.2151 -3.26845 96.2214L-7.50365 90.1263C-8.79533 88.2685 -10.5095 87.2457 -12.3314 87.2457C-14.1532 87.2457 -15.8674 88.2685 -17.1591 90.1263L-21.3933 96.2214C-22.7775 98.2151 -24.8207 99.487 -27.1445 99.8049C-29.4724 100.128 -31.7811 99.446 -33.6553 97.8972L-39.3874 93.1648C-41.1358 91.721 -43.0622 91.1961 -44.8187 91.683C-46.5731 92.173 -47.9443 93.6188 -48.6837 95.7525L-51.1071 102.758C-51.8998 105.048 -53.5215 106.82 -55.6733 107.75C-57.8241 108.677 -60.2354 108.647 -62.4607 107.658L-69.2652 104.638C-71.3355 103.719 -73.3364 103.726 -74.8947 104.669C-76.4509 105.609 -77.3805 107.37 -77.5133 109.625L-77.9448 117.019C-78.0867 119.436 -79.1671 121.579 -80.9869 123.049C-82.8047 124.521 -85.1324 125.143 -87.5476 124.78L-94.9187 123.699C-97.161 123.372 -99.0885 123.915 -100.333 125.237C-101.576 126.56 -101.993 128.504 -101.508 130.711L-99.9173 137.947C-99.397 140.312 -99.8556 142.665 -101.209 144.571C-102.562 146.474 -104.638 147.691 -107.056 147.997L-114.448 148.93C-116.702 149.214 -118.405 150.257 -119.242 151.865C-120.081 153.472 -119.956 155.456 -118.89 157.45L-115.394 163.991C-114.251 166.129 -114.053 168.516 -114.838 170.714C-115.624 172.912 -117.293 174.641 -119.539 175.582L-126.404 178.463C-128.496 179.343 -129.853 180.801 -130.224 182.574C-130.595 184.347 -129.936 186.224 -128.369 187.859L-123.226 193.221C-121.545 194.972 -120.706 197.217 -120.867 199.544C-121.026 201.871 -122.164 203.984 -124.07 205.493L-129.899 210.111C-131.677 211.516 -132.587 213.285 -132.462 215.092C-132.338 216.898 -131.194 218.528 -129.241 219.681L-122.834 223.464C-120.739 224.701 -119.323 226.639 -118.845 228.923C-118.368 231.207 -118.89 233.544 -120.315 235.509L-124.675 241.517C-126.004 243.347 -126.4 245.296 -125.791 247C-125.18 248.707 -123.636 249.971 -121.443 250.558L-114.247 252.484C-111.893 253.112 -110.003 254.599 -108.924 256.669C-107.844 258.738 -107.712 261.131 -108.552 263.406L-111.119 270.359C-111.901 272.48 -111.754 274.461 -110.703 275.94C-109.667 277.398 -107.875 278.199 -105.649 278.199C-105.616 278.199 -105.584 278.199 -105.552 278.197L-98.1002 278.122H-98.0035C-95.6045 278.122 -93.418 279.044 -91.8387 280.726C-90.237 282.43 -89.4608 284.697 -89.6523 287.114L-90.237 294.497C-90.4154 296.748 -89.7348 298.618 -88.3217 299.76C-86.9082 300.903 -84.9289 301.186 -82.7474 300.553L-75.5928 298.481C-73.2509 297.802 -70.8617 298.099 -68.8567 299.311C-66.8518 300.52 -65.4887 302.497 -65.0179 304.873L-63.5753 312.141C-63.1357 314.356 -61.9748 315.973 -60.3038 316.694C-58.6349 317.415 -56.6511 317.158 -54.7206 315.962L-48.394 312.049C-46.3247 310.771 -43.9385 310.415 -41.682 311.04C-39.4236 311.67 -37.5746 313.207 -36.4751 315.369L-33.114 321.98C-32.09 323.996 -30.5317 325.242 -28.7269 325.488C-26.9212 325.731 -25.0843 324.953 -23.5501 323.288L-18.5202 317.822C-16.8744 316.034 -14.6773 315.051 -12.3314 315.051ZM3.40527 326.059C1.66693 326.059 -0.0523071 325.22 -1.50293 323.643L-6.53287 318.177C-8.07706 316.502 -10.1353 315.577 -12.3314 315.577C-14.5264 315.577 -16.5857 316.502 -18.1289 318.177L-23.1598 323.643C-24.8137 325.444 -26.8236 326.288 -28.7994 326.011C-30.7822 325.74 -32.4823 324.392 -33.5879 322.218L-36.9489 315.606C-37.98 313.578 -39.7113 312.138 -41.8249 311.549C-43.9415 310.96 -46.1728 311.297 -48.1133 312.499L-54.4399 316.412C-56.5223 317.697 -58.6822 317.971 -60.5151 317.177C-62.351 316.387 -63.6226 314.634 -64.0964 312.241L-65.538 304.974C-65.9806 302.747 -67.2572 300.895 -69.1314 299.76C-71.0075 298.627 -73.2499 298.352 -75.445 298.988L-82.5985 301.06C-84.9544 301.741 -87.1047 301.423 -88.6569 300.17C-90.2087 298.914 -90.9577 296.885 -90.7651 294.456L-90.1808 287.072C-90.0016 284.805 -90.7282 282.68 -92.2258 281.085C-93.7245 279.488 -95.8033 278.609 -98.0947 278.65L-105.546 278.726C-108.015 278.74 -109.982 277.87 -111.137 276.244C-112.292 274.619 -112.461 272.465 -111.617 270.176L-109.05 263.223C-108.263 261.09 -108.384 258.849 -109.395 256.911C-110.404 254.975 -112.177 253.584 -114.385 252.994L-121.58 251.069C-123.948 250.434 -125.621 249.052 -126.291 247.179C-126.96 245.304 -126.54 243.184 -125.106 241.207L-120.746 235.199C-119.409 233.357 -118.918 231.167 -119.365 229.03C-119.811 226.895 -121.14 225.079 -123.105 223.917L-129.512 220.134C-131.62 218.889 -132.855 217.114 -132.992 215.128C-133.129 213.143 -132.148 211.213 -130.23 209.697L-124.401 205.08C-122.613 203.665 -121.546 201.686 -121.395 199.508C-121.246 197.332 -122.033 195.228 -123.61 193.583L-128.752 188.222C-130.443 186.458 -131.151 184.413 -130.744 182.466C-130.336 180.521 -128.869 178.926 -126.61 177.978L-119.745 175.097C-117.639 174.213 -116.074 172.595 -115.339 170.538C-114.604 168.482 -114.79 166.245 -115.863 164.239L-119.358 157.698C-120.509 155.545 -120.635 153.387 -119.714 151.623C-118.794 149.856 -116.947 148.714 -114.515 148.405L-107.123 147.472C-104.855 147.186 -102.908 146.048 -101.643 144.266C-100.377 142.483 -99.948 140.278 -100.436 138.058L-102.027 130.823C-102.551 128.441 -102.086 126.331 -100.72 124.877C-99.3545 123.423 -97.2659 122.821 -94.841 123.177L-87.4701 124.259C-85.2118 124.586 -83.0261 124.017 -81.3219 122.639C-79.6188 121.263 -78.6078 119.254 -78.475 116.986L-78.0424 109.592C-77.9006 107.16 -76.8805 105.252 -75.1703 104.217C-73.4601 103.185 -71.2872 103.162 -69.0479 104.156L-62.2434 107.175C-60.156 108.102 -57.8995 108.134 -55.8845 107.265C-53.8706 106.397 -52.3525 104.734 -51.6081 102.586L-49.1847 95.5805C-48.3879 93.2768 -46.889 91.7121 -44.9615 91.1761C-43.0371 90.6382 -40.9346 91.2021 -39.0484 92.7579L-33.3163 97.4912C-31.5568 98.944 -29.3879 99.5829 -27.2159 99.282C-25.042 98.985 -23.1286 97.7932 -21.8299 95.9235L-17.5947 89.8283C-16.2014 87.8226 -14.3323 86.7188 -12.3314 86.7188C-10.3305 86.7188 -8.46033 87.8226 -7.06805 89.8283L-2.83284 95.9235C-1.53412 97.7932 0.379257 98.985 2.5542 99.282C4.72412 99.5829 6.89403 98.944 8.65451 97.4912L14.3866 92.7579C16.2728 91.2021 18.3733 90.6382 20.2988 91.1761C22.2253 91.7121 23.7262 93.2768 24.5229 95.5805L26.9454 102.586C27.6908 104.734 29.2078 106.397 31.2218 107.265C33.2358 108.132 35.4932 108.1 37.5816 107.175L44.3851 104.156C46.6245 103.162 48.7984 103.185 50.5086 104.217C52.2177 105.252 53.2388 107.16 53.3807 109.594L53.8122 116.986C53.946 119.254 54.957 121.263 56.6592 122.641C58.3623 124.017 60.5433 124.589 62.8068 124.259L70.1786 123.177C72.6051 122.821 74.6925 123.423 76.0576 124.877C77.4237 126.331 77.8885 128.441 77.3654 130.823L75.7739 138.058C75.286 140.278 75.7145 142.483 76.9811 144.266C78.2456 146.048 80.1932 147.186 82.4597 147.472L89.8527 148.405C92.2852 148.714 94.1322 149.856 95.0516 151.623C95.9721 153.387 95.8464 155.545 94.6965 157.698L91.1997 164.239C90.1273 166.245 89.9412 168.482 90.6756 170.538C91.412 172.595 92.9763 174.213 95.0818 175.097L101.948 177.978C104.206 178.926 105.674 180.521 106.081 182.466C106.489 184.413 105.781 186.458 104.089 188.222L98.9478 193.583C97.3704 195.228 96.5837 197.332 96.7326 199.508C96.8835 201.686 97.9509 203.665 99.7385 205.08L105.568 209.697C107.486 211.213 108.466 213.143 108.33 215.128C108.193 217.114 106.957 218.889 104.85 220.134L98.4428 223.917C96.4771 225.079 95.1482 226.895 94.7025 229.03C94.2559 231.167 94.7458 233.357 96.0838 235.199L100.444 241.207C101.877 243.184 102.298 245.304 101.629 247.179C100.959 249.052 99.2858 250.434 96.9177 251.069L89.7219 252.994C87.5138 253.584 85.7422 254.975 84.7322 256.911C83.7222 258.849 83.6005 261.09 84.3872 263.223L86.9544 270.176C87.7995 272.465 87.6295 274.619 86.4746 276.244C85.3368 277.847 83.3902 278.726 80.9859 278.726H80.8843L73.432 278.65C73.4028 278.65 73.3716 278.648 73.3414 278.648C71.09 278.648 69.0429 279.512 67.5631 281.085C66.0662 282.68 65.3388 284.805 65.5179 287.071L66.1024 294.456C66.2955 296.887 65.5461 298.914 63.9938 300.17C62.4406 301.427 60.2888 301.741 57.9368 301.06L50.7822 298.988C48.5881 298.352 46.3458 298.625 44.4696 299.76C42.5945 300.895 41.3179 302.747 40.8763 304.974L39.4337 312.241C38.9598 314.634 37.6883 316.387 35.8524 317.177C34.0154 317.973 31.8616 317.699 29.7782 316.412L23.4506 312.499C21.509 311.297 19.2747 310.955 17.1621 311.549C15.0496 312.138 13.3172 313.578 12.2871 315.606L8.92513 322.218C7.82056 324.392 6.11943 325.74 4.13763 326.011C3.89319 326.045 3.64973 326.059 3.40527 326.059Z" fill="#1ECC1A"></path>
      <path d="M-12.3317 176.347C-29.0365 176.347 -42.6273 189.826 -42.6273 206.392C-42.6273 222.957 -29.0365 236.434 -12.3317 236.434C4.3732 236.434 17.9639 222.957 17.9639 206.392C17.9639 189.826 4.3732 176.347 -12.3317 176.347ZM-12.3317 236.901C-29.2949 236.901 -43.0958 223.214 -43.0958 206.392C-43.0958 189.57 -29.2949 175.882 -12.3317 175.882C4.63162 175.882 18.4325 189.57 18.4325 206.392C18.4325 223.214 4.63162 236.901 -12.3317 236.901ZM-12.3317 127.715C-17.5272 127.715 -21.7535 131.906 -21.7535 137.059C-21.7535 142.21 -17.5272 146.401 -12.3317 146.401C-7.13609 146.401 -2.90884 142.21 -2.90884 137.059C-2.90884 131.906 -7.13609 127.715 -12.3317 127.715ZM-12.3317 146.928C-17.8188 146.928 -22.2834 142.5 -22.2834 137.059C-22.2834 131.616 -17.8188 127.188 -12.3317 127.188C-6.84449 127.188 -2.37994 131.616 -2.37994 137.059C-2.37994 142.5 -6.84449 146.928 -12.3317 146.928ZM-12.3317 266.381C-17.5272 266.381 -21.7535 270.571 -21.7535 275.724C-21.7535 280.875 -17.5272 285.066 -12.3317 285.066C-7.13609 285.066 -2.90884 280.875 -2.90884 275.724C-2.90884 270.571 -7.13609 266.381 -12.3317 266.381ZM-12.3317 285.594C-17.8188 285.594 -22.2834 281.166 -22.2834 275.724C-22.2834 270.281 -17.8188 265.854 -12.3317 265.854C-6.84449 265.854 -2.37994 270.281 -2.37994 275.724C-2.37994 281.166 -6.84449 285.594 -12.3317 285.594ZM-82.2451 197.049C-87.4406 197.049 -91.6675 201.24 -91.6675 206.392C-91.6675 211.544 -87.4406 215.735 -82.2451 215.735C-77.0506 215.735 -72.8233 211.544 -72.8233 206.392C-72.8233 201.24 -77.0506 197.049 -82.2451 197.049ZM-82.2451 216.261C-87.7329 216.261 -92.1973 211.834 -92.1973 206.392C-92.1973 200.95 -87.7329 196.521 -82.2451 196.521C-76.758 196.521 -72.2934 200.95 -72.2934 206.392C-72.2934 211.834 -76.758 216.261 -82.2451 216.261ZM57.5828 197.049C52.3872 197.049 48.161 201.24 48.161 206.392C48.161 211.544 52.3872 215.735 57.5828 215.735C62.7774 215.735 67.0046 211.544 67.0046 206.392C67.0046 201.24 62.7774 197.049 57.5828 197.049ZM57.5828 216.261C52.0956 216.261 47.6311 211.834 47.6311 206.392C47.6311 200.95 52.0956 196.521 57.5828 196.521C63.07 196.521 67.5346 200.95 67.5346 206.392C67.5346 211.834 63.07 216.261 57.5828 216.261Z" fill="#1ECC1A"></path>
      <path d="M-12.3316 180.773C-26.576 180.773 -38.166 192.264 -38.166 206.392C-38.166 220.517 -26.576 232.008 -12.3316 232.008C1.91278 232.008 13.5028 220.517 13.5028 206.392C13.5028 192.264 1.91278 180.773 -12.3316 180.773ZM-12.3316 232.406C-26.7968 232.406 -38.5645 220.736 -38.5645 206.392C-38.5645 192.046 -26.7968 180.375 -12.3316 180.375C2.13356 180.375 13.9022 192.046 13.9022 206.392C13.9022 220.736 2.13356 232.406 -12.3316 232.406Z" fill="url(#paint1_linear_214_5081)"></path>
      <path d="M-12.3311 187.602C-22.7769 187.602 -31.2753 196.031 -31.2753 206.391C-31.2753 216.75 -22.7769 225.18 -12.3311 225.18C-1.88528 225.18 6.61311 216.75 6.61311 206.391C6.61311 196.031 -1.88528 187.602 -12.3311 187.602ZM-12.3311 225.469C-22.939 225.469 -31.5688 216.911 -31.5688 206.391C-31.5688 195.869 -22.939 187.312 -12.3311 187.312C-1.72316 187.312 6.9067 195.869 6.9067 206.391C6.9067 216.911 -1.72316 225.469 -12.3311 225.469Z" fill="url(#paint2_linear_214_5081)"></path>
      <path d="M-32.0991 206.266H-38.5645V205.973H-32.0991V206.266ZM13.2708 206.266H6.74914V205.973H13.2708V206.266ZM-12.498 231.766H-12.7957V225.369H-12.498V231.766ZM-12.498 186.928H-12.7957V180.473H-12.498V186.928ZM195.954 247.256C197.909 247.256 199.737 248.07 201.105 249.547L205.016 253.78C206.103 254.953 207.392 255.509 208.638 255.339C209.886 255.169 210.975 254.292 211.701 252.87L214.314 247.752C215.227 245.964 216.765 244.693 218.646 244.171C220.526 243.651 222.512 243.944 224.233 245.001L229.151 248.03C230.518 248.873 231.91 249.062 233.066 248.566C234.222 248.068 235.03 246.935 235.342 245.371L236.462 239.746C236.853 237.781 237.987 236.145 239.657 235.141C241.325 234.133 243.315 233.889 245.263 234.449L250.825 236.053C252.37 236.497 253.762 236.31 254.739 235.524C255.718 234.736 256.187 233.428 256.061 231.839L255.606 226.124C255.446 224.127 256.094 222.249 257.427 220.834C258.76 219.421 260.603 218.633 262.636 218.675L268.43 218.733H268.496C270.075 218.733 271.338 218.182 272.055 217.178C272.781 216.157 272.876 214.774 272.321 213.278L270.325 207.896C269.627 206.015 269.738 204.031 270.638 202.315C271.537 200.598 273.11 199.366 275.065 198.844L280.658 197.356C282.214 196.94 283.304 196.065 283.725 194.889C284.148 193.715 283.861 192.355 282.919 191.062L279.529 186.412C278.344 184.787 277.912 182.85 278.309 180.957C278.707 179.063 279.885 177.456 281.625 176.435L286.606 173.505C287.991 172.691 288.799 171.557 288.887 170.313C288.972 169.067 288.326 167.835 287.067 166.842L282.534 163.27C280.951 162.022 280.006 160.272 279.872 158.344C279.738 156.415 280.434 154.553 281.832 153.101L285.829 148.952C286.941 147.798 287.411 146.49 287.155 145.269C286.899 144.049 285.94 143.034 284.456 142.413L279.12 140.182C277.254 139.404 275.867 137.972 275.212 136.149C274.557 134.328 274.719 132.35 275.67 130.579L278.387 125.517C279.144 124.108 279.24 122.723 278.66 121.615C278.08 120.509 276.88 119.788 275.283 119.587L269.536 118.863C267.528 118.611 265.801 117.603 264.674 116.024C263.546 114.445 263.164 112.495 263.596 110.536L264.832 104.935C265.176 103.38 264.892 102.021 264.032 101.108C263.172 100.198 261.818 99.8255 260.226 100.056L254.495 100.893C252.485 101.185 250.552 100.675 249.037 99.4562C247.521 98.235 246.622 96.4614 246.504 94.4609L246.168 88.739C246.075 87.1475 245.43 85.9154 244.354 85.2664C243.277 84.6185 241.875 84.6175 240.402 85.2684L235.113 87.6064C233.263 88.4255 231.258 88.4464 229.464 87.679C227.673 86.9107 226.324 85.4406 225.665 83.5466L223.78 78.1243C223.256 76.6184 222.3 75.6012 221.087 75.2648C219.869 74.9274 218.52 75.3036 217.282 76.3228L212.827 79.9865C211.268 81.2684 209.346 81.8287 207.409 81.563C205.472 81.3002 203.772 80.2472 202.621 78.598L199.328 73.8814C197.498 71.2578 194.411 71.2578 192.58 73.8814L189.288 78.598C188.136 80.2472 186.437 81.3002 184.5 81.563C182.561 81.8297 180.64 81.2664 179.083 79.9865L174.626 76.3228C173.39 75.3036 172.041 74.9294 170.822 75.2648C169.609 75.6012 168.652 76.6184 168.128 78.1243L166.244 83.5466C165.585 85.4406 164.236 86.9107 162.444 87.679C160.65 88.4484 158.645 88.4255 156.796 87.6064L151.507 85.2684C150.034 84.6175 148.633 84.6185 147.555 85.2664C146.478 85.9154 145.833 87.1475 145.741 88.739L145.404 94.4609C145.286 96.4614 144.387 98.235 142.871 99.4562C141.355 100.677 139.42 101.185 137.414 100.893L131.682 100.056C130.091 99.8235 128.737 100.198 127.877 101.108C127.016 102.019 126.732 103.38 127.076 104.935L128.313 110.536C128.745 112.495 128.362 114.445 127.235 116.024C126.108 117.603 124.381 118.611 122.373 118.863L116.626 119.587C115.027 119.788 113.828 120.509 113.249 121.615C112.668 122.723 112.764 124.11 113.521 125.517L116.239 130.579C117.189 132.348 117.352 134.328 116.697 136.149C116.042 137.972 114.654 139.404 112.788 140.182L107.452 142.413C105.968 143.034 105.009 144.049 104.753 145.269C104.497 146.49 104.967 147.798 106.079 148.952L110.077 153.101C111.474 154.551 112.17 156.413 112.037 158.342C111.902 160.272 110.957 162.022 109.374 163.27L104.842 166.842C103.583 167.835 102.935 169.069 103.022 170.313C103.107 171.557 103.918 172.691 105.302 173.504L110.283 176.435C112.024 177.456 113.203 179.063 113.6 180.957C113.997 182.85 113.563 184.787 112.379 186.412L108.989 191.062C108.047 192.357 107.761 193.715 108.184 194.891C108.605 196.065 109.694 196.941 111.25 197.354L116.844 198.846C118.8 199.366 120.371 200.598 121.27 202.315C122.171 204.033 122.28 206.015 121.583 207.896L119.588 213.278C119.032 214.772 119.127 216.157 119.853 217.176C120.58 218.197 121.907 218.803 123.48 218.733L129.272 218.675C131.358 218.621 133.147 219.421 134.482 220.834C135.814 222.249 136.461 224.127 136.303 226.124L135.848 231.839C135.722 233.428 136.19 234.736 137.17 235.524C138.146 236.31 139.538 236.497 141.084 236.053L146.646 234.45C148.589 233.887 150.581 234.134 152.251 235.139C153.92 236.145 155.054 237.781 155.446 239.746L156.567 245.371C156.879 246.935 157.687 248.068 158.843 248.566C159.997 249.061 161.388 248.871 162.758 248.03L167.676 245.001C169.397 243.944 171.382 243.651 173.261 244.171C175.142 244.691 176.682 245.964 177.594 247.752L180.208 252.87C180.934 254.292 182.022 255.169 183.271 255.339C184.524 255.509 185.807 254.956 186.893 253.779L190.804 249.549C192.172 248.07 194 247.256 195.954 247.256ZM208.185 256.688C206.705 256.688 205.25 255.986 204.033 254.67L200.123 250.437C197.898 248.034 194.011 248.033 191.785 250.438L187.876 254.668C186.485 256.173 184.785 256.873 183.089 256.645C181.393 256.413 179.948 255.283 179.019 253.463L176.406 248.347C175.663 246.893 174.419 245.861 172.901 245.44C171.385 245.014 169.778 245.261 168.379 246.122L163.461 249.15C161.71 250.225 159.88 250.446 158.312 249.774C156.743 249.1 155.659 247.626 155.261 245.626L154.14 240.001C153.821 238.402 152.905 237.075 151.559 236.265C150.211 235.454 148.596 235.262 147.018 235.714L141.456 237.318C139.479 237.891 137.658 237.613 136.328 236.546C135.001 235.477 134.359 233.768 134.521 231.735L134.975 226.02C135.105 224.396 134.583 222.874 133.508 221.735C132.446 220.609 130.97 219.991 129.349 219.991H129.286L123.493 220.051C121.364 220.024 119.752 219.32 118.766 217.937C117.779 216.554 117.626 214.736 118.337 212.823L120.333 207.441C120.9 205.913 120.814 204.308 120.088 202.922C119.363 201.536 118.088 200.541 116.498 200.119L110.904 198.627C108.914 198.098 107.502 196.929 106.928 195.331C106.355 193.737 106.704 191.947 107.91 190.293L111.299 185.643C112.262 184.32 112.616 182.752 112.296 181.225C111.976 179.697 111.019 178.399 109.603 177.565L104.623 174.637C102.851 173.595 101.81 172.092 101.693 170.402C101.577 168.712 102.399 167.082 104.012 165.812L108.543 162.239C109.831 161.225 110.6 159.808 110.707 158.253C110.815 156.698 110.249 155.19 109.112 154.011L105.114 149.861C103.693 148.383 103.101 146.659 103.448 145.002C103.796 143.343 105.034 141.994 106.934 141.199L112.271 138.969C113.788 138.335 114.914 137.177 115.442 135.709C115.97 134.238 115.835 132.637 115.063 131.198L112.345 126.136C111.378 124.333 111.278 122.513 112.066 121.009C112.854 119.507 114.414 118.536 116.458 118.28L122.205 117.557C123.838 117.351 125.239 116.537 126.147 115.264C127.057 113.99 127.363 112.412 127.012 110.818L125.775 105.218C125.335 103.225 125.735 101.447 126.904 100.211C128.072 98.9715 129.838 98.452 131.878 98.7536L137.61 99.5906C139.238 99.8344 140.807 99.4194 142.031 98.4351C143.252 97.4497 143.978 96.0125 144.074 94.3853L144.411 88.6634C144.53 86.627 145.402 85.0196 146.864 84.1388C148.326 83.2609 150.167 83.2331 152.05 84.0651L157.339 86.4031C158.841 87.0659 160.467 87.0898 161.914 86.4707C163.358 85.8497 164.45 84.6583 164.985 83.1166L166.87 77.6963C167.539 75.7674 168.816 74.4546 170.463 73.9958C172.109 73.538 173.893 74.0068 175.477 75.3096L179.934 78.9732C181.201 80.0153 182.76 80.4702 184.319 80.2592C185.88 80.0452 187.256 79.1902 188.193 77.8496L191.484 73.1339C192.655 71.4539 194.244 70.5312 195.954 70.5312C197.665 70.5312 199.254 71.4539 200.424 73.1339L203.716 77.8496C204.653 79.1902 206.029 80.0452 207.591 80.2592C209.148 80.4702 210.709 80.0153 211.976 78.9732L216.431 75.3096C218.017 74.0068 219.798 73.538 221.446 73.9958C223.093 74.4546 224.368 75.7674 225.039 77.6963L226.924 83.1166C227.459 84.6583 228.551 85.8497 229.995 86.4707C231.442 87.0898 233.066 87.0659 234.569 86.4031L239.859 84.0651C241.742 83.2331 243.585 83.2609 245.045 84.1388C246.507 85.0196 247.378 86.627 247.498 88.6634L247.834 94.3853C247.93 96.0106 248.656 97.4497 249.877 98.4351C251.1 99.4174 252.672 99.8344 254.299 99.5906L260.03 98.7536C262.069 98.454 263.838 98.9715 265.005 100.211C266.172 101.447 266.573 103.225 266.133 105.218L264.896 110.818C264.545 112.412 264.852 113.99 265.762 115.264C266.67 116.537 268.071 117.351 269.704 117.557L275.451 118.28C277.495 118.536 279.054 119.505 279.842 121.008C280.629 122.511 280.531 124.333 279.563 126.136L276.845 131.198C276.074 132.637 275.938 134.24 276.467 135.71C276.994 137.177 278.12 138.335 279.637 138.969L284.974 141.199C286.874 141.994 288.112 143.343 288.46 145.003C288.808 146.661 288.215 148.385 286.793 149.861L282.796 154.011C281.659 155.19 281.093 156.698 281.201 158.253C281.308 159.808 282.077 161.225 283.365 162.239L287.896 165.812C289.509 167.082 290.332 168.712 290.216 170.402C290.098 172.092 289.058 173.595 287.286 174.637L282.305 177.565C280.89 178.397 279.933 179.697 279.612 181.223C279.293 182.752 279.646 184.32 280.609 185.643L283.999 190.293C285.205 191.947 285.553 193.737 284.98 195.331C284.406 196.929 282.995 198.098 281.003 198.629L275.411 200.117C273.821 200.541 272.546 201.536 271.82 202.922C271.094 204.306 271.009 205.911 271.575 207.441L273.571 212.823C274.281 214.738 274.13 216.554 273.142 217.937C272.156 219.32 270.47 220.026 268.416 220.051L262.622 219.991C261.029 219.949 259.476 220.595 258.401 221.735C257.326 222.874 256.804 224.396 256.934 226.02L257.388 231.735C257.55 233.768 256.907 235.477 255.581 236.546C254.251 237.613 252.43 237.889 250.452 237.318L244.89 235.714C243.31 235.264 241.696 235.456 240.349 236.267C239.003 237.075 238.087 238.402 237.769 240.001L236.647 245.626C236.25 247.626 235.166 249.1 233.597 249.774C232.027 250.448 230.199 250.225 228.448 249.15L223.529 246.122C222.132 245.261 220.527 245.018 219.006 245.44C217.489 245.861 216.245 246.893 215.502 248.347L212.89 253.463C211.96 255.283 210.515 256.413 208.819 256.645C208.608 256.673 208.396 256.688 208.185 256.688Z" fill="url(#paint3_linear_214_5081)"></path>
      <path d="M173.044 240.811C173.59 240.811 174.138 240.885 174.675 241.034C176.345 241.497 177.712 242.623 178.524 244.21L181.008 249.065C181.765 250.545 182.916 251.46 184.251 251.641C185.582 251.823 186.944 251.25 188.078 250.025L191.796 246.012C193.011 244.701 194.636 243.979 196.37 243.979C198.104 243.979 199.729 244.701 200.944 246.012L204.662 250.025C205.795 251.248 207.153 251.821 208.488 251.641C209.822 251.46 210.974 250.545 211.732 249.065L214.216 244.21C215.028 242.625 216.395 241.497 218.065 241.034C219.731 240.57 221.495 240.833 223.025 241.773L227.702 244.649C229.13 245.525 230.596 245.714 231.829 245.184C233.062 244.654 233.922 243.466 234.246 241.84L235.313 236.505C235.66 234.76 236.667 233.309 238.148 232.419C239.632 231.529 241.399 231.314 243.128 231.811L248.417 233.333C250.027 233.794 251.492 233.589 252.536 232.75C253.58 231.91 254.084 230.537 253.952 228.884L253.519 223.462C253.379 221.689 253.952 220.023 255.135 218.773C256.304 217.538 257.921 216.859 259.694 216.859H259.763L265.272 216.915H265.345C266.99 216.915 268.314 216.33 269.08 215.26C269.856 214.173 269.966 212.717 269.387 211.16L267.49 206.054C266.868 204.386 266.966 202.629 267.763 201.109C268.561 199.589 269.958 198.497 271.698 198.033L277.017 196.62C278.638 196.189 279.78 195.264 280.231 194.011C280.682 192.756 280.389 191.325 279.406 189.981L276.184 185.57C275.13 184.128 274.745 182.411 275.098 180.735C275.449 179.057 276.497 177.634 278.046 176.725L282.781 173.948C284.224 173.101 285.071 171.904 285.163 170.58C285.255 169.252 284.582 167.952 283.269 166.918L278.961 163.53C277.551 162.42 276.709 160.869 276.591 159.162C276.473 157.453 277.093 155.804 278.335 154.517L282.136 150.581C283.294 149.381 283.781 148.001 283.508 146.7C283.233 145.399 282.231 144.327 280.685 143.681L275.61 141.566C273.951 140.876 272.717 139.605 272.137 137.993C271.555 136.379 271.701 134.625 272.546 133.053L275.13 128.251C275.918 126.787 276.011 125.331 275.391 124.15C274.772 122.97 273.513 122.204 271.848 121.996L266.383 121.311C264.596 121.086 263.061 120.193 262.061 118.792C261.062 117.394 260.723 115.669 261.107 113.931L262.283 108.616C262.642 106.995 262.333 105.569 261.413 104.598C260.494 103.623 259.069 103.227 257.414 103.469L251.964 104.263C250.184 104.511 248.46 104.069 247.115 102.991C245.771 101.91 244.972 100.338 244.868 98.5619L244.548 93.1315C244.451 91.4783 243.763 90.1859 242.613 89.4942C241.462 88.8035 239.984 88.7955 238.452 89.4702L233.422 91.6882C231.776 92.4158 229.995 92.4398 228.405 91.7561C226.816 91.0755 225.615 89.7721 225.029 88.0899L223.239 82.9473C222.693 81.3791 221.679 80.3196 220.383 79.9598C219.087 79.5989 217.659 79.9867 216.368 81.0472L212.132 84.5216C210.745 85.658 209.033 86.1578 207.319 85.9219C205.6 85.69 204.091 84.7555 203.068 83.2912L199.938 78.8173C198.983 77.4529 197.715 76.7013 196.37 76.7013C195.024 76.7013 193.756 77.4529 192.802 78.8173L189.672 83.2912C188.647 84.7555 187.139 85.69 185.42 85.9219C183.7 86.1558 181.993 85.658 180.608 84.5216L176.372 81.0472C175.08 79.9867 173.653 79.5989 172.357 79.9598C171.061 80.3196 170.047 81.3791 169.501 82.9473L167.71 88.0899C167.124 89.7721 165.924 91.0755 164.334 91.7561C162.746 92.4418 160.964 92.4158 159.318 91.6882L154.288 89.4702C152.756 88.7955 151.276 88.8055 150.127 89.4942C148.977 90.1859 148.289 91.4783 148.192 93.1315L147.872 98.5619C147.768 100.338 146.969 101.91 145.625 102.991C144.279 104.071 142.556 104.513 140.775 104.263L135.327 103.469C133.661 103.223 132.245 103.625 131.326 104.598C130.407 105.569 130.097 106.997 130.457 108.616L131.633 113.931C132.017 115.669 131.677 117.396 130.678 118.794C129.678 120.193 128.143 121.086 126.357 121.311L120.891 121.996C119.225 122.204 117.968 122.97 117.349 124.15C116.728 125.331 116.821 126.787 117.609 128.251L120.193 133.053C121.038 134.625 121.184 136.379 120.603 137.993C120.023 139.605 118.789 140.875 117.13 141.566L112.055 143.681C110.509 144.327 109.506 145.399 109.232 146.7C108.958 148.001 109.445 149.381 110.604 150.581L114.404 154.517C115.647 155.804 116.266 157.454 116.148 159.162C116.03 160.869 115.188 162.42 113.779 163.53L109.471 166.918C108.158 167.952 107.485 169.252 107.577 170.58C107.669 171.904 108.515 173.101 109.959 173.948L114.694 176.725C116.243 177.634 117.29 179.057 117.642 180.735C117.995 182.411 117.61 184.128 116.556 185.57L113.334 189.981C112.35 191.325 112.058 192.756 112.509 194.011C112.96 195.264 114.101 196.189 115.723 196.62L121.04 198.033C122.781 198.497 124.179 199.59 124.977 201.11C125.774 202.629 125.87 204.386 125.249 206.054L123.353 211.16C122.774 212.717 122.884 214.173 123.66 215.26C124.426 216.33 125.75 216.915 127.395 216.915H127.468L132.975 216.859H133.045C134.819 216.859 136.436 217.538 137.605 218.773C138.788 220.023 139.361 221.689 139.22 223.462L138.788 228.884C138.656 230.539 139.159 231.91 140.204 232.75C141.248 233.589 142.713 233.794 144.323 233.333L149.611 231.811C151.34 231.314 153.111 231.529 154.591 232.419C156.072 233.309 157.08 234.76 157.427 236.505L158.493 241.84C158.818 243.466 159.677 244.654 160.911 245.184C162.145 245.714 163.61 245.525 165.038 244.647L169.715 241.775C170.752 241.136 171.895 240.811 173.044 240.811ZM208.001 252.062C206.716 252.062 205.445 251.445 204.373 250.287L200.655 246.273C199.514 245.043 197.993 244.365 196.37 244.365C194.747 244.365 193.225 245.043 192.084 246.273L188.367 250.287C187.143 251.605 185.668 252.231 184.198 252.024C182.732 251.827 181.475 250.837 180.658 249.242L178.175 244.386C177.411 242.896 176.132 241.84 174.569 241.407C173.011 240.977 171.357 241.223 169.923 242.101L165.246 244.976C163.707 245.923 162.112 246.119 160.755 245.541C159.399 244.958 158.46 243.672 158.109 241.915L157.044 236.58C156.717 234.943 155.772 233.582 154.387 232.75C153.002 231.918 151.344 231.716 149.721 232.181L144.433 233.702C142.695 234.206 141.102 233.971 139.956 233.051C138.809 232.13 138.254 230.638 138.397 228.855L138.829 223.433C138.961 221.768 138.425 220.209 137.318 219.036C136.224 217.881 134.709 217.248 133.045 217.248H132.979L127.471 217.304H127.394C125.619 217.304 124.181 216.659 123.34 215.483C122.487 214.29 122.36 212.706 122.985 211.027L124.882 205.921C125.464 204.355 125.374 202.71 124.628 201.289C123.882 199.865 122.572 198.842 120.939 198.407L115.621 196.994C113.871 196.53 112.635 195.516 112.139 194.14C111.644 192.763 111.954 191.205 113.015 189.754L116.237 185.343C117.225 183.99 117.588 182.381 117.258 180.812C116.928 179.245 115.947 177.911 114.494 177.058L109.758 174.282C108.201 173.367 107.287 172.062 107.185 170.604C107.085 169.148 107.811 167.73 109.227 166.616L113.535 163.227C114.857 162.187 115.646 160.734 115.756 159.134C115.868 157.537 115.286 155.99 114.119 154.783L110.32 150.846C109.069 149.552 108.547 148.052 108.848 146.621C109.148 145.192 110.233 144.021 111.903 143.326L116.977 141.211C118.534 140.561 119.69 139.371 120.234 137.863C120.777 136.353 120.639 134.709 119.847 133.236L117.263 128.435C116.412 126.854 116.32 125.269 116.999 123.973C117.681 122.675 119.045 121.838 120.843 121.61L126.307 120.926C127.982 120.715 129.422 119.88 130.357 118.569C131.294 117.261 131.61 115.644 131.248 114.014L130.073 108.699C129.686 106.95 130.029 105.402 131.039 104.333C132.049 103.266 133.585 102.825 135.384 103.084L140.832 103.878C142.504 104.134 144.119 103.7 145.377 102.691C146.635 101.678 147.382 100.204 147.482 98.5399L147.801 93.1105C147.905 91.3243 148.66 89.923 149.923 89.1634C151.189 88.4067 152.795 88.3877 154.448 89.1184L159.478 91.3353C161.021 92.016 162.689 92.038 164.178 91.4013C165.666 90.7626 166.789 89.5422 167.338 87.9639L169.13 82.8214C169.719 81.1292 170.827 79.9818 172.252 79.5879C173.678 79.1851 175.229 79.6059 176.623 80.7494L180.859 84.2237C182.159 85.2902 183.756 85.751 185.368 85.5401C186.975 85.3222 188.388 84.4446 189.35 83.0713L192.48 78.5974C193.509 77.1241 194.89 76.3125 196.37 76.3125C197.849 76.3125 199.231 77.1241 200.26 78.5974L203.39 83.0713C204.351 84.4446 205.764 85.3202 207.371 85.5401C208.986 85.751 210.58 85.2902 211.881 84.2237L216.117 80.7494C217.51 79.6059 219.062 79.1851 220.488 79.5879C221.912 79.9818 223.021 81.1292 223.61 82.8214L225.402 87.9639C225.951 89.5422 227.073 90.7626 228.562 91.4013C230.051 92.042 231.72 92.014 233.262 91.3353L238.291 89.1184C239.947 88.3877 241.553 88.4067 242.817 89.1634C244.08 89.923 244.834 91.3243 244.939 93.1105L245.258 98.5399C245.357 100.204 246.105 101.678 247.362 102.691C248.621 103.7 250.241 104.132 251.906 103.878L257.356 103.084C259.148 102.825 260.69 103.265 261.7 104.331C262.71 105.4 263.053 106.95 262.667 108.699L261.491 114.014C261.13 115.644 261.447 117.261 262.381 118.569C263.317 119.878 264.757 120.715 266.433 120.926L271.896 121.61C273.694 121.838 275.059 122.675 275.741 123.973C276.42 125.269 276.327 126.854 275.476 128.435L272.892 133.236C272.1 134.709 271.963 136.353 272.506 137.863C273.049 139.371 274.206 140.561 275.763 141.211L280.837 143.326C282.507 144.021 283.591 145.192 283.891 146.621C284.193 148.052 283.671 149.552 282.42 150.846L278.619 154.783C277.452 155.99 276.872 157.537 276.983 159.134C277.094 160.732 277.883 162.187 279.204 163.227L283.512 166.616C284.929 167.73 285.655 169.148 285.554 170.604C285.452 172.062 284.538 173.367 282.981 174.282L278.246 177.058C276.793 177.911 275.811 179.245 275.482 180.812C275.152 182.381 275.514 183.99 276.503 185.343L279.725 189.754C280.785 191.205 281.096 192.763 280.601 194.14C280.105 195.516 278.869 196.53 277.119 196.994L271.8 198.407C270.168 198.842 268.858 199.865 268.111 201.287C267.365 202.708 267.275 204.355 267.857 205.921L269.755 211.027C270.379 212.706 270.253 214.29 269.4 215.483C268.559 216.659 267.12 217.304 265.346 217.304H265.268L259.76 217.248H259.694C258.029 217.248 256.515 217.881 255.422 219.036C254.315 220.209 253.779 221.768 253.911 223.433L254.343 228.855C254.486 230.638 253.931 232.128 252.784 233.051C251.637 233.973 250.047 234.209 248.307 233.702L243.018 232.181C241.394 231.716 239.738 231.918 238.353 232.75C236.967 233.582 236.023 234.943 235.696 236.58L234.631 241.915C234.28 243.672 233.341 244.958 231.984 245.541C230.628 246.119 229.034 245.922 227.493 244.978L222.817 242.101C221.383 241.221 219.73 240.977 218.17 241.407C216.608 241.84 215.327 242.896 214.565 244.386L212.081 249.242C211.264 250.837 210.007 251.827 208.541 252.024C208.361 252.049 208.181 252.062 208.001 252.062Z" fill="#1ECC1A"></path>
      <path d="M196.369 141.46C184.053 141.46 174.035 151.396 174.035 163.61C174.035 175.823 184.053 185.76 196.369 185.76C208.686 185.76 218.704 175.823 218.704 163.61C218.704 151.396 208.686 141.46 196.369 141.46ZM196.369 186.102C183.864 186.102 173.69 176.012 173.69 163.61C173.69 151.207 183.864 141.118 196.369 141.118C208.874 141.118 219.049 151.207 219.049 163.61C219.049 176.012 208.874 186.102 196.369 186.102ZM196.369 105.608C192.539 105.608 189.423 108.699 189.423 112.497C189.423 116.294 192.539 119.384 196.369 119.384C200.199 119.384 203.316 116.294 203.316 112.497C203.316 108.699 200.199 105.608 196.369 105.608ZM196.369 119.772C192.325 119.772 189.032 116.508 189.032 112.497C189.032 108.484 192.325 105.219 196.369 105.219C200.414 105.219 203.706 108.484 203.706 112.497C203.706 116.508 200.414 119.772 196.369 119.772ZM196.369 207.836C192.539 207.836 189.423 210.925 189.423 214.723C189.423 218.52 192.539 221.611 196.369 221.611C200.199 221.611 203.316 218.52 203.316 214.723C203.316 210.925 200.199 207.836 196.369 207.836ZM196.369 222C192.325 222 189.032 218.734 189.032 214.723C189.032 210.712 192.325 207.447 196.369 207.447C200.414 207.447 203.706 210.712 203.706 214.723C203.706 218.734 200.414 222 196.369 222ZM144.828 156.721C140.997 156.721 137.881 159.812 137.881 163.61C137.881 167.407 140.997 170.497 144.828 170.497C148.658 170.497 151.773 167.407 151.773 163.61C151.773 159.812 148.658 156.721 144.828 156.721ZM144.828 170.887C140.782 170.887 137.49 167.621 137.49 163.61C137.49 159.598 140.782 156.334 144.828 156.334C148.873 156.334 152.165 159.598 152.165 163.61C152.165 167.621 148.873 170.887 144.828 170.887ZM247.911 156.721C244.081 156.721 240.965 159.812 240.965 163.61C240.965 167.407 244.081 170.497 247.911 170.497C251.742 170.497 254.857 167.407 254.857 163.61C254.857 159.812 251.742 156.721 247.911 156.721ZM247.911 170.887C243.866 170.887 240.574 167.621 240.574 163.61C240.574 159.598 243.866 156.334 247.911 156.334C251.956 156.334 255.249 159.598 255.249 163.61C255.249 167.621 251.956 170.887 247.911 170.887Z" fill="#1ECC1A"></path>
      <path d="M196.37 144.82C185.924 144.82 177.426 153.249 177.426 163.61C177.426 173.97 185.924 182.398 196.37 182.398C206.816 182.398 215.313 173.97 215.313 163.61C215.313 153.249 206.816 144.82 196.37 144.82ZM196.37 182.688C185.763 182.688 177.132 174.128 177.132 163.61C177.132 153.09 185.763 144.531 196.37 144.531C206.977 144.531 215.607 153.09 215.607 163.61C215.607 174.128 206.977 182.688 196.37 182.688Z" fill="url(#paint4_linear_214_5081)"></path>
      <path d="M196.37 149.378C188.455 149.378 182.018 155.762 182.018 163.609C182.018 171.456 188.455 177.84 196.37 177.84C204.284 177.84 210.721 171.456 210.721 163.609C210.721 155.762 204.284 149.378 196.37 149.378ZM196.37 178.062C188.334 178.062 181.795 171.579 181.795 163.609C181.795 155.639 188.334 149.156 196.37 149.156C204.406 149.156 210.944 155.639 210.944 163.609C210.944 171.579 204.406 178.062 196.37 178.062Z" fill="#39B449"></path>
      <path d="M181.929 163.72H177.132V163.499H181.929V163.72ZM215.607 163.72H210.766V163.499H215.607V163.72ZM196.48 182.688H196.259V177.929H196.48V182.688ZM196.48 149.333H196.259V144.531H196.48V149.333Z" fill="url(#paint5_linear_214_5081)"></path>
    </g>
  </g>
  <defs>
    <linearGradient id="paint0_linear_214_5081" x1="-6.5" y1="121" x2="286" y2="245.5" gradientUnits="userSpaceOnUse">
      <stop stop-color="#93ACD9"></stop>
      <stop offset="1" stop-color="#4E5B73" stop-opacity="0.5"></stop>
    </linearGradient>
    <linearGradient id="paint1_linear_214_5081" x1="-27.8939" y1="199.281" x2="-1.52902" y2="205.022" gradientUnits="userSpaceOnUse">
      <stop stop-color="#93ACD9"></stop>
      <stop offset="1" stop-color="#4E5B73" stop-opacity="0.5"></stop>
    </linearGradient>
    <linearGradient id="paint2_linear_214_5081" x1="-23.7438" y1="201.177" x2="-4.40953" y2="205.387" gradientUnits="userSpaceOnUse">
      <stop stop-color="#93ACD9"></stop>
      <stop offset="1" stop-color="#4E5B73" stop-opacity="0.5"></stop>
    </linearGradient>
    <linearGradient id="paint3_linear_214_5081" x1="28.3041" y1="138.174" x2="179.383" y2="195.791" gradientUnits="userSpaceOnUse">
      <stop stop-color="#93ACD9"></stop>
      <stop offset="1" stop-color="#4E5B73" stop-opacity="0.5"></stop>
    </linearGradient>
    <linearGradient id="paint4_linear_214_5081" x1="184.957" y1="158.396" x2="204.291" y2="162.606" gradientUnits="userSpaceOnUse">
      <stop stop-color="#93ACD9"></stop>
      <stop offset="1" stop-color="#4E5B73" stop-opacity="0.5"></stop>
    </linearGradient>
    <linearGradient id="paint5_linear_214_5081" x1="184.957" y1="158.396" x2="204.291" y2="162.606" gradientUnits="userSpaceOnUse">
      <stop stop-color="#93ACD9"></stop>
      <stop offset="1" stop-color="#4E5B73" stop-opacity="0.5"></stop>
    </linearGradient>
    <clipPath id="clip0_214_5081">
      <rect width="325" height="333" fill="white"></rect>
    </clipPath>
  </defs>
</svg>
