<?xml version="1.0" encoding="UTF-8"?>
<svg xmlns="http://www.w3.org/2000/svg" width="24" height="24" viewBox="0 0 24 24" fill="none">
  <g clip-path="url(#clip0_117_3337)">
    <path d="M20.5213 14.6327C19.2854 13.9331 18.3925 14.8074 18.282 14.9179L16.6559 16.544C16.4548 16.7452 16.1525 16.8053 15.8896 16.6965C15.6269 16.5876 15.4555 16.3313 15.4555 16.0469V7.39062C15.4555 6.79432 14.9532 6.3304 14.3673 6.36424C13.8192 6.39588 13.3993 6.86726 13.3993 7.4163V12.5645C13.3993 12.9431 13.1083 13.2689 12.7301 13.2867C12.3263 13.3058 11.993 12.984 11.993 12.5844V4.81901C11.993 4.26227 11.561 3.78743 11.0046 3.76638C10.4197 3.74416 9.9368 4.21366 9.9368 4.79374V12.5645C9.9368 12.9431 9.64584 13.2688 9.26766 13.2867C8.86388 13.3057 8.53055 12.9839 8.53055 12.5844V6.09218C8.53055 5.52359 8.06991 5.06402 7.50239 5.06402C6.92672 5.06402 6.47428 5.53226 6.47428 6.09218V12.5645C6.47428 12.9431 6.18333 13.2688 5.80514 13.2867C5.40136 13.3057 5.06803 12.984 5.06803 12.5844V9.1219C5.06803 8.5533 4.60739 8.09374 4.03987 8.09374C3.47128 8.09374 3.01172 8.55438 3.01172 9.1219V17.6734C3.01172 18.6695 3.3997 19.6061 4.10423 20.3107C5.1855 21.3919 5.49094 22.5973 5.5762 23.378C5.61502 23.7328 5.91764 24 6.27469 24H13.8868C14.2751 24 14.5899 23.6852 14.5899 23.2969C14.5899 22.9738 14.5081 21.8968 15.4297 20.9753L20.6663 15.7386C20.993 15.412 20.9234 14.8603 20.5213 14.6327Z" fill="white"></path>
    <path d="M4.04062 6.68747C4.40784 6.68747 4.75627 6.76917 5.06878 6.91537V6.09211C5.06878 4.74975 6.16083 3.6577 7.50314 3.6577C7.92891 3.6577 8.32959 3.76762 8.67811 3.96052C9.01908 3.02723 9.91584 2.35927 10.9657 2.35927C12.3182 2.35927 13.4001 3.45586 13.4001 4.81894V5.1855C13.593 5.09456 13.9512 4.95614 14.4282 4.95614C15.7705 4.95614 16.8626 6.04819 16.8626 7.39055V14.3493L17.2884 13.9235C17.5714 13.6405 18.342 12.9922 19.4813 12.9592V7.72678C19.0975 7.46878 18.8011 7.08441 18.6521 6.61814C18.4461 6.02513 17.9711 5.55103 17.3774 5.34633C16.5022 5.06414 15.9161 4.26061 15.9161 3.33886C15.9161 2.41397 16.5038 1.61044 17.3819 1.3298C17.9749 1.12378 18.449 0.64875 18.6537 0.0550781C18.6597 0.0365156 18.6662 0.0182812 18.6727 0H0.703125C0.314812 0 0 0.314812 0 0.703125V17.2719C0 17.6602 0.314812 17.975 0.703125 17.975H1.61527C1.6095 17.8749 1.60627 17.7744 1.60627 17.6733V9.12188C1.60627 7.77952 2.69827 6.68747 4.04062 6.68747Z" fill="white"></path>
    <path d="M23.5049 2.66709C22.4886 2.32308 21.6789 1.51411 21.334 0.498188C21.2464 0.209859 20.9782 0 20.6612 0C20.3454 0 20.0781 0.208359 19.9894 0.495094C19.6454 1.51144 18.8364 2.32116 17.8205 2.66602C17.5321 2.75367 17.3223 3.0218 17.3223 3.33886C17.3223 3.65466 17.5306 3.92189 17.8174 4.01062C18.8337 4.35464 19.6434 5.16361 19.9883 6.17953C20.0759 6.46791 20.3441 6.67777 20.6611 6.67777C20.9769 6.67777 21.2442 6.46941 21.3329 6.18267C21.6769 5.16633 22.4859 4.35661 23.5018 4.01175C23.7902 3.92409 24 3.65597 24 3.33891C24 3.02306 23.7917 2.75587 23.5049 2.66709Z" fill="white"></path>
  </g>
  <defs>
    <clipPath id="clip0_117_3337">
      <rect width="24" height="24" fill="white"></rect>
    </clipPath>
  </defs>
</svg>
