<?xml version="1.0" encoding="UTF-8"?>
<svg xmlns="http://www.w3.org/2000/svg" width="24" height="24" viewBox="0 0 24 24" fill="none">
  <path d="M19.8842 15.8774L17.4199 17.5408L18.282 20.7695L21.6354 18.5319L19.8842 15.8774Z" fill="white"></path>
  <path d="M16.4891 10.7327L14.998 8.47266L15.7367 11.2392L16.4891 10.7327Z" fill="white"></path>
  <path d="M17.3151 11.9824L16.1465 12.7689L17.0118 16.0104L19.0602 14.6277L17.3151 11.9824Z" fill="white"></path>
  <path d="M14.2949 13.1271L14.6615 13.0158L14.2949 11.1729V13.1271Z" fill="white"></path>
  <path d="M14.2949 17.9417L15.8603 17.5063L15.0479 14.4629L14.2949 14.6916V17.9417Z" fill="white"></path>
  <path d="M16.2465 18.9526L14.2949 19.4955V22.7614L17.0659 22.0217L16.2465 18.9526Z" fill="white"></path>
  <path d="M2.39062 16.1509H12.7989V19.319H2.39062V16.1509Z" fill="white"></path>
  <path d="M2.39062 20.8159H12.7989V24.0001H2.39062V20.8159Z" fill="white"></path>
  <path d="M2.39062 0V9.98895H12.7989V5.23956C12.7989 2.35052 10.4484 0 7.55933 0H2.39062ZM8.03741 2.90186C8.65961 3.26184 8.87292 4.0611 8.51294 4.68329C8.27161 5.10059 7.8327 5.33405 7.38226 5.33405C7.16071 5.33405 6.93658 5.27765 6.73132 5.159C6.10913 4.79901 5.89581 3.99976 6.2558 3.37738C6.61578 2.75519 7.41486 2.54169 8.03741 2.90167V2.90186Z" fill="white"></path>
  <path d="M2.39062 11.4858H12.7989V14.6541H2.39062V11.4858Z" fill="white"></path>
</svg>
