<?xml version="1.0" encoding="UTF-8"?>
<svg xmlns="http://www.w3.org/2000/svg" width="24" height="24" viewBox="0 0 24 24" fill="none">
  <g clip-path="url(#clip0_117_3373)">
    <path d="M16.4531 11.5312C16.4531 11.1429 16.1383 10.8281 15.75 10.8281C13.0361 10.8281 10.8281 8.62017 10.8281 5.90625C10.8281 5.51794 10.5133 5.20312 10.125 5.20312C9.73669 5.20312 9.42188 5.51794 9.42188 5.90625C9.42188 8.62017 7.21392 10.8281 4.5 10.8281C4.11169 10.8281 3.79688 11.1429 3.79688 11.5312C3.79688 11.9196 4.11169 12.2344 4.5 12.2344C7.21392 12.2344 9.42188 14.4423 9.42188 17.1562C9.42188 17.5446 9.73669 17.8594 10.125 17.8594C10.5133 17.8594 10.8281 17.5446 10.8281 17.1562C10.8281 14.4423 13.0361 12.2344 15.75 12.2344C16.1383 12.2344 16.4531 11.9196 16.4531 11.5312Z" fill="white"></path>
    <path d="M23.2969 17.4375C20.8414 17.4375 18.8438 15.4398 18.8438 12.9844C18.8438 12.5961 18.5289 12.2812 18.1406 12.2812C17.7523 12.2812 17.4375 12.5961 17.4375 12.9844C17.4375 15.4398 15.4398 17.4375 12.9844 17.4375C12.5961 17.4375 12.2812 17.7523 12.2812 18.1406C12.2812 18.5289 12.5961 18.8438 12.9844 18.8438C15.4398 18.8438 17.4375 20.8414 17.4375 23.2969C17.4375 23.6852 17.7523 24 18.1406 24C18.5289 24 18.8438 23.6852 18.8438 23.2969C18.8438 20.8414 20.8414 18.8438 23.2969 18.8438C23.6852 18.8438 24 18.5289 24 18.1406C24 17.7523 23.6852 17.4375 23.2969 17.4375Z" fill="white"></path>
    <path d="M7.26562 19.3125C5.84405 19.3125 4.6875 18.156 4.6875 16.7344C4.6875 16.3461 4.37269 16.0312 3.98438 16.0312C3.59606 16.0312 3.28125 16.3461 3.28125 16.7344C3.28125 18.156 2.1247 19.3125 0.703125 19.3125C0.314812 19.3125 0 19.6273 0 20.0156C0 20.4039 0.314812 20.7188 0.703125 20.7188C2.1247 20.7188 3.28125 21.8753 3.28125 23.2969C3.28125 23.6852 3.59606 24 3.98438 24C4.37269 24 4.6875 23.6852 4.6875 23.2969C4.6875 21.8753 5.84405 20.7188 7.26562 20.7188C7.65394 20.7188 7.96875 20.4039 7.96875 20.0156C7.96875 19.6273 7.65394 19.3125 7.26562 19.3125Z" fill="white"></path>
    <path d="M16.7344 5.20312C18.156 5.20312 19.3125 6.35967 19.3125 7.78125C19.3125 8.16956 19.6273 8.48438 20.0156 8.48438C20.4039 8.48438 20.7188 8.16956 20.7188 7.78125C20.7188 6.35967 21.8753 5.20312 23.2969 5.20312C23.6852 5.20312 24 4.88831 24 4.5C24 4.11169 23.6852 3.79688 23.2969 3.79688C21.8753 3.79688 20.7188 2.64033 20.7188 1.21875C20.7188 0.830437 20.4039 0.515625 20.0156 0.515625C19.6273 0.515625 19.3125 0.830437 19.3125 1.21875C19.3125 2.64033 18.156 3.79688 16.7344 3.79688C16.3461 3.79688 16.0312 4.11169 16.0312 4.5C16.0312 4.88831 16.3461 5.20312 16.7344 5.20312Z" fill="white"></path>
    <path d="M0.703125 4.6875C2.1247 4.6875 3.28125 5.84405 3.28125 7.26562C3.28125 7.65394 3.59606 7.96875 3.98438 7.96875C4.37269 7.96875 4.6875 7.65394 4.6875 7.26562C4.6875 5.84405 5.84405 4.6875 7.26562 4.6875C7.65394 4.6875 7.96875 4.37269 7.96875 3.98438C7.96875 3.59606 7.65394 3.28125 7.26562 3.28125C5.84405 3.28125 4.6875 2.1247 4.6875 0.703125C4.6875 0.314812 4.37269 0 3.98438 0C3.59606 0 3.28125 0.314812 3.28125 0.703125C3.28125 2.1247 2.1247 3.28125 0.703125 3.28125C0.314812 3.28125 0 3.59606 0 3.98438C0 4.37269 0.314812 4.6875 0.703125 4.6875Z" fill="white"></path>
  </g>
  <defs>
    <clipPath id="clip0_117_3373">
      <rect width="24" height="24" fill="white"></rect>
    </clipPath>
  </defs>
</svg>
