<?xml version="1.0" encoding="UTF-8"?>
<svg xmlns="http://www.w3.org/2000/svg" width="26" height="24" viewBox="0 0 26 24" fill="none">
  <path d="M3.02589 23.7201C3.37944 24.072 3.95267 24.072 4.30626 23.7201L16.277 11.8057L12.236 7.78369L0.265187 19.6981C-0.0883958 20.05 -0.0883958 20.6205 0.265187 20.9724L3.02589 23.7201Z" fill="white"></path>
  <path d="M25.4806 8.49874C25.0816 8.10159 24.4346 8.10159 24.0356 8.49874L23.6503 8.88225L22.785 8.021L19.2207 11.5685L20.0861 12.4297L19.7007 12.8133C19.3017 13.2104 19.3017 13.8543 19.7007 14.2514L19.8934 14.4432C20.2924 14.8404 20.9394 14.8404 21.3384 14.4432L25.6733 10.1287C26.0723 9.73155 26.0723 9.08766 25.6733 8.69052L25.4806 8.49874Z" fill="white"></path>
  <path d="M12.4324 4.89481L15.9545 1.38931C14.1097 0.189255 11.307 -0.927643 9.09845 1.27056C5.94641 4.40768 8.29497 2.07056 12.4324 4.89481Z" fill="white"></path>
  <path d="M12.5727 5.71831C12.1737 6.11545 12.1737 6.75935 12.5727 7.15649L12.7196 7.30272L16.7607 11.3247L16.9076 11.471C17.1071 11.6695 17.3686 11.7688 17.6301 11.7688C17.8916 11.7688 18.1531 11.6695 18.3526 11.471L18.7379 11.0874L22.3022 7.53994L22.6875 7.15643C23.0865 6.75929 23.0865 6.1154 22.6875 5.71826L18.3526 1.40381C18.1531 1.20525 17.8916 1.10596 17.6301 1.10596C17.3686 1.10596 17.1071 1.20525 16.9076 1.40381L16.5264 1.78329L12.9923 5.30071L12.5727 5.71831Z" fill="white"></path>
</svg>
