<?xml version="1.0" encoding="UTF-8"?>
<svg xmlns="http://www.w3.org/2000/svg" width="24" height="24" viewBox="0 0 24 24" fill="none">
  <path d="M11.2042 16.773L15.6478 12.3294C17.915 13.105 20.4206 12.5282 22.1409 10.8081C23.9705 8.97854 24.5073 6.25393 23.4931 3.86752L23.0855 2.9031L18.9292 7.05941L17.2686 6.73129L16.9405 5.07071L21.0968 0.914394L20.1324 0.506802C17.746 -0.50742 15.0214 0.0294456 13.1918 1.85904C11.4717 3.57931 10.8949 6.08493 11.6706 8.35214L7.56496 12.4577C6.86898 13.1537 5.74526 14.0187 4.31356 14.1978C3.2098 14.3271 2.22542 14.8143 1.4399 15.5998C-0.504312 17.544 -0.458719 20.6614 1.44979 22.5701C3.17684 24.2971 5.86959 24.4185 7.69423 23.1469C8.82766 22.3712 9.56356 21.1979 9.7723 19.8556C9.99111 18.5431 10.4685 17.5089 11.2042 16.773ZM3.42861 20.5715C2.60317 19.7461 2.60317 18.4138 3.42861 17.5883C4.25387 16.7631 5.58614 16.7631 6.41158 17.5883C7.23684 18.4138 7.23684 19.7461 6.41158 20.5715C5.58633 21.3968 4.25387 21.3968 3.42861 20.5715ZM5.41714 18.5828C5.13881 18.3043 4.70119 18.3043 4.42287 18.5828C4.14437 18.8611 4.14437 19.2985 4.42287 19.5771C4.70119 19.8556 5.13881 19.8556 5.41714 19.5771C5.69564 19.2985 5.69564 18.8613 5.41714 18.5828Z" fill="white"></path>
</svg>
