<?xml version="1.0" encoding="UTF-8"?>
<svg xmlns="http://www.w3.org/2000/svg" width="24" height="24" viewBox="0 0 24 24" fill="none">
  <path d="M22.4222 3.3589C22.3791 3.04946 22.1564 2.79493 21.8555 2.71127L12.2094 0.0287059C12.0719 -0.00956863 11.9267 -0.00956863 11.7891 0.0287059L2.14304 2.71127C1.84208 2.79493 1.61944 3.04936 1.57635 3.3589C1.5204 3.7612 0.244064 13.2667 3.51779 17.9953C6.78765 22.7184 11.6114 23.9287 11.8151 23.978C11.8756 23.9926 11.9373 23.9998 11.9993 23.9998C12.0612 23.9998 12.1229 23.9925 12.1834 23.978C12.3872 23.9287 17.211 22.7184 20.4807 17.9953C23.7544 13.2668 22.4781 3.76131 22.4222 3.3589ZM18.2197 8.90829L11.6401 15.4878C11.487 15.6409 11.2863 15.7176 11.0856 15.7176C10.8849 15.7176 10.6841 15.641 10.531 15.4878L6.46294 11.4198C6.3158 11.2727 6.23319 11.0732 6.23319 10.8652C6.23319 10.6572 6.31591 10.4577 6.46294 10.3106L7.27068 9.5029C7.57698 9.19671 8.07361 9.1966 8.3798 9.5029L11.0856 12.2087L16.3028 6.99132C16.4499 6.84418 16.6494 6.76157 16.8574 6.76157C17.0654 6.76157 17.2649 6.84418 17.412 6.99132L18.2197 7.79906C18.526 8.10536 18.526 8.60199 18.2197 8.90829Z" fill="white"></path>
</svg>
