<?xml version="1.0" encoding="UTF-8"?>
<svg xmlns="http://www.w3.org/2000/svg" width="24" height="24" viewBox="0 0 24 24" fill="none">
  <g clip-path="url(#clip0_128_3439)">
    <path d="M12.1875 4.39627V0H9.84375V4.39627L11.0156 5.56814L12.1875 4.39627Z" fill="white"></path>
    <path d="M11.3438 18.375C11.3438 14.498 14.498 11.3438 18.375 11.3438C19.7132 11.3438 20.9653 11.7197 22.0312 12.3713V0.703125C22.0312 0.314812 21.7164 0 21.3281 0H13.5938V4.6875C13.5938 4.87397 13.5197 5.05284 13.3878 5.1847L11.5128 7.0597C11.2382 7.3343 10.7931 7.3343 10.5185 7.0597L8.64347 5.1847C8.51156 5.05284 8.4375 4.87397 8.4375 4.6875V0H0.703125C0.314812 0 0 0.314812 0 0.703125V21.3281C0 21.7164 0.314812 22.0312 0.703125 22.0312H12.3713C11.7197 20.9653 11.3438 19.7132 11.3438 18.375ZM6.5625 19.9219H2.8125C2.42419 19.9219 2.10938 19.6071 2.10938 19.2188C2.10938 18.8304 2.42419 18.5156 2.8125 18.5156H6.5625C6.95081 18.5156 7.26562 18.8304 7.26562 19.2188C7.26562 19.6071 6.95081 19.9219 6.5625 19.9219ZM6.5625 17.1094H2.8125C2.42419 17.1094 2.10938 16.7946 2.10938 16.4062C2.10938 16.0179 2.42419 15.7031 2.8125 15.7031H6.5625C6.95081 15.7031 7.26562 16.0179 7.26562 16.4062C7.26562 16.7946 6.95081 17.1094 6.5625 17.1094Z" fill="white"></path>
    <path d="M18.375 12.75C15.2684 12.75 12.75 15.2684 12.75 18.375C12.75 21.4816 15.2684 24 18.375 24C21.4816 24 24 21.4816 24 18.375C24 15.2684 21.4816 12.75 18.375 12.75ZM21.2587 17.5142L18.0767 20.6962C17.8021 20.9707 17.3569 20.9707 17.0823 20.6962L15.4913 19.1052C15.2167 18.8306 15.2167 18.3854 15.4913 18.1108C15.7659 17.8362 16.2111 17.8362 16.4857 18.1108L17.5795 19.2046L20.2643 16.5198C20.5389 16.2452 20.9841 16.2452 21.2587 16.5198C21.5332 16.7944 21.5332 17.2396 21.2587 17.5142Z" fill="white"></path>
  </g>
  <defs>
    <clipPath id="clip0_128_3439">
      <rect width="24" height="24" fill="white"></rect>
    </clipPath>
  </defs>
</svg>
