<?xml version="1.0" encoding="UTF-8"?>
<svg xmlns="http://www.w3.org/2000/svg" width="24" height="24" viewBox="0 0 24 24" fill="none">
  <g clip-path="url(#clip0_128_3426)">
    <path d="M8.18567 9.37848L12.754 4.81018L15.6459 7.70215C15.9144 7.97058 16.2322 8.15808 16.5701 8.2663V9.84045C16.5701 10.2288 16.8848 10.5436 17.2732 10.5436C17.6614 10.5436 17.9763 10.2288 17.9763 9.84045V8.2663C18.3141 8.1579 18.6322 7.97021 18.9003 7.70215C19.8006 6.802 19.799 5.34613 18.9003 4.44763L15.7009 1.24805C15.7113 1.3493 15.7168 1.45203 15.7168 1.55603C15.7168 3.1897 14.3878 4.51868 12.7543 4.51868C11.1208 4.51868 9.79187 3.1897 9.79187 1.55603C9.79187 1.45239 9.79736 1.35004 9.8078 1.24896L4.56641 6.49036C4.77771 6.44238 4.99744 6.41602 5.22302 6.41602C6.85669 6.41602 8.18567 7.745 8.18567 9.37848Z" fill="white"></path>
    <path d="M8.18488 9.37891C8.18488 11.0126 6.8559 12.3416 5.22223 12.3416C3.58875 12.3416 2.25977 11.0126 2.25977 9.37891V18.1753H8.18488V9.37891Z" fill="white"></path>
    <path d="M5.22223 10.9349C6.08044 10.9349 6.77863 10.2367 6.77863 9.37848C6.77863 8.52045 6.08044 7.82227 5.22223 7.82227C4.3642 7.82227 3.66602 8.52045 3.66602 9.37848C3.66602 10.2367 4.3642 10.9349 5.22223 10.9349Z" fill="white"></path>
    <path d="M12.7535 3.11243C13.6117 3.11243 14.3097 2.41443 14.3097 1.55621C14.3097 0.698181 13.6117 0 12.7535 0C11.8954 0 11.1973 0.698181 11.1973 1.55621C11.1973 2.41443 11.8954 3.11243 12.7535 3.11243Z" fill="white"></path>
    <path d="M21.7906 19.5811H2.20935C0.99115 19.5811 0 20.5722 0 21.7904C0 23.0086 0.99115 23.9998 2.20935 23.9998H21.7906C23.0089 23.9998 24 23.0086 24 21.7904C24 20.5722 23.0089 19.5811 21.7906 19.5811ZM2.20935 22.5935C1.7666 22.5935 1.40625 22.2332 1.40625 21.7904C1.40625 21.3477 1.7666 20.9873 2.20935 20.9873C2.6521 20.9873 3.01245 21.3477 3.01245 21.7904C3.01245 22.2332 2.65228 22.5935 2.20935 22.5935ZM12 22.5935C11.5573 22.5935 11.1969 22.2332 11.1969 21.7904C11.1969 21.3477 11.5573 20.9873 12 20.9873C12.4427 20.9873 12.8031 21.3477 12.8031 21.7904C12.8031 22.2332 12.4427 22.5935 12 22.5935ZM21.7906 22.5935C21.3479 22.5935 20.9875 22.2332 20.9875 21.7904C20.9875 21.3477 21.3479 20.9873 21.7906 20.9873C22.2334 20.9873 22.5938 21.3475 22.5938 21.7904C22.5938 22.2333 22.2334 22.5935 21.7906 22.5935Z" fill="white"></path>
    <path d="M13.5566 12.853V18.175H20.988V12.853C20.988 12.4647 20.673 12.1499 20.2849 12.1499H14.2598C13.8714 12.1499 13.5566 12.4647 13.5566 12.853Z" fill="white"></path>
  </g>
  <defs>
    <clipPath id="clip0_128_3426">
      <rect width="24" height="24" fill="white"></rect>
    </clipPath>
  </defs>
</svg>
