<svg width="456" height="200" viewBox="0 0 456 200" fill="none" xmlns="http://www.w3.org/2000/svg">
<path d="M72.42 157V133.03H7.14V121.98L65.96 36.81H87.21V119.6H101.32V133.03H87.21V157H72.42ZM24.99 119.6H72.42V50.24L24.99 119.6Z" fill="#93ACD9"/>
<path d="M222.416 198.452C224.371 198.561 226.201 198.613 227.996 198.613L233.212 190.958L233.554 190.939C236.811 190.744 240.097 190.372 243.323 189.83L243.659 189.772L250.487 196.053C252.239 195.645 254.043 195.171 255.86 194.64L258.697 185.841L259.019 185.725C262.112 184.612 265.143 183.332 268.097 181.891L268.406 181.741L276.713 185.841C278.332 184.923 279.932 183.961 281.479 182.968L281.716 173.715L281.989 173.514C284.634 171.583 287.173 169.512 289.595 167.31L289.848 167.079L298.978 168.68C300.275 167.347 301.535 165.98 302.758 164.579L300.371 155.643L300.58 155.372C302.589 152.758 304.46 150.036 306.143 147.282L306.319 146.99L315.537 145.96C316.429 144.274 317.255 142.605 317.995 140.991L313.177 133.084L313.302 132.765C314.484 129.706 315.499 126.586 316.343 123.418L316.432 123.091L324.987 119.51C325.335 117.773 325.649 115.937 325.919 114.04L319.06 107.804L319.089 107.466C319.293 104.963 319.397 102.451 319.397 100C319.397 99.2208 319.387 98.4458 319.366 97.6719L319.358 97.3315L326.553 91.4949C326.394 89.648 326.184 87.8058 325.923 85.9704L317.598 81.9237L317.528 81.5906C316.879 78.4299 316.034 75.2314 315.021 72.0864L314.915 71.7607L320.171 64.1395C319.497 62.4199 318.775 60.7195 318.005 59.0402L308.855 57.4924L308.693 57.1907C307.148 54.3018 305.449 51.4976 303.602 48.7903L303.41 48.5086L306.296 39.7323C305.156 38.2642 303.976 36.8274 302.758 35.4237L293.54 36.5077L293.302 36.2647C290.995 33.9145 288.56 31.6859 286.066 29.6374L285.801 29.4206L286.091 20.1803C284.549 19.0629 283.006 18.0072 281.494 17.0374L272.961 20.6652L272.663 20.4977C269.798 18.8916 266.847 17.4428 263.823 16.1577L263.508 16.0236L261.173 7.07446C259.429 6.45616 257.668 5.88623 255.892 5.3653L248.726 11.2448L248.394 11.1683C245.227 10.4499 241.962 9.89166 238.69 9.51254L238.351 9.47383L233.584 1.5489C231.678 1.44102 229.801 1.38658 228.002 1.38658L222.788 9.04024L222.446 9.05911C219.166 9.25705 215.88 9.62987 212.677 10.1703L212.34 10.2268L205.512 3.94827C203.767 4.35358 201.964 4.828 200.14 5.35793L197.3 14.1594L196.98 14.2746C193.9 15.3837 190.845 16.6719 187.902 18.1067L187.595 18.2554L179.287 14.1594C177.667 15.0747 176.067 16.0372 174.52 17.0311L174.284 26.2829L174.008 26.484C171.361 28.4205 168.801 30.5087 166.403 32.6903L166.151 32.9196L157.022 31.3215C155.704 32.6756 154.435 34.0518 153.242 35.4216L155.628 44.3582L155.419 44.6294C153.405 47.2498 151.533 49.9717 149.857 52.7177L149.68 53.0099L140.462 54.0405C139.575 55.7161 138.75 57.3845 138.004 59.0078L142.821 66.9169L142.697 67.2332C141.515 70.2917 140.5 73.4116 139.656 76.5793L139.568 76.9103L131.013 80.4899C130.663 82.2347 130.349 84.0706 130.08 85.9589L136.937 92.1935L136.91 92.5328C136.706 95.0369 136.602 97.5493 136.602 100C136.602 100.778 136.613 101.555 136.632 102.329L136.64 102.67L129.446 108.505C129.604 110.35 129.816 112.206 130.077 114.029L138.401 118.076L138.47 118.41C139.121 121.573 139.965 124.772 140.979 127.914L141.084 128.238L135.828 135.859C136.502 137.58 137.225 139.28 137.995 140.96L147.146 142.508L147.307 142.809C148.851 145.697 150.551 148.501 152.398 151.206L152.589 151.489L149.705 160.269C150.843 161.737 152.022 163.173 153.24 164.575L162.457 163.492L162.695 163.735C165.004 166.085 167.439 168.313 169.932 170.363L170.196 170.579L169.909 179.818C171.426 180.917 172.969 181.974 174.505 182.963L183.037 179.336L183.335 179.503C186.216 181.113 189.19 182.574 192.176 183.841L192.49 183.975L194.826 192.926C196.571 193.544 198.332 194.114 200.109 194.634L207.273 188.756L207.607 188.831C210.773 189.551 214.037 190.108 217.309 190.486L217.649 190.526L222.416 198.452ZM227.999 200C226.062 200 224.09 199.939 221.967 199.815L221.6 199.793L216.808 191.824C213.715 191.455 210.63 190.929 207.63 190.258L200.425 196.171L200.073 196.068C198.041 195.482 196.001 194.822 194.01 194.106L193.664 193.984L191.316 184.983C188.493 183.772 185.683 182.393 182.954 180.88L174.374 184.526L174.064 184.328C172.269 183.181 170.51 181.978 168.791 180.721L168.495 180.505L168.785 171.216C166.431 169.266 164.132 167.161 161.942 164.95L152.674 166.036L152.433 165.762C151.058 164.195 149.693 162.532 148.377 160.822L148.153 160.532L151.055 151.704C149.318 149.138 147.711 146.488 146.239 143.762L137.038 142.203L136.884 141.871C135.994 139.947 135.164 137.996 134.397 136.02L134.265 135.676L139.55 128.013C138.602 125.04 137.805 122.018 137.177 119.024L128.806 114.954L128.752 114.59C128.447 112.506 128.203 110.373 128.028 108.255L128 107.891L135.233 102.022C135.22 101.351 135.211 100.673 135.211 100C135.211 97.6226 135.307 95.1898 135.496 92.7611L128.6 86.4899L128.651 86.1296C128.954 83.9533 129.315 81.842 129.723 79.8531L129.798 79.496L138.4 75.8944C139.209 72.9013 140.169 69.9508 141.276 67.0542L136.433 59.102L136.584 58.77C137.429 56.91 138.378 54.9914 139.406 53.0665L139.578 52.7449L148.848 51.706C150.444 49.1108 152.212 46.5408 154.108 44.0566L151.708 35.0708L151.948 34.7943C153.305 33.2213 154.764 31.6388 156.283 30.0909L156.539 29.8291L165.719 31.4356C167.997 29.3787 170.414 27.4066 172.91 25.5665L173.149 16.2655L173.455 16.0655C175.243 14.9097 177.068 13.8111 178.926 12.7717L179.245 12.5927L187.599 16.7106C190.389 15.3648 193.274 14.1458 196.186 13.087L199.04 4.23526L199.392 4.13261C201.489 3.51262 203.564 2.968 205.558 2.51453L205.915 2.43388L212.782 8.74696C215.815 8.24741 218.92 7.89346 222.021 7.69762L227.262 0.00413513L227.999 0C229.942 0 231.972 0.0628052 234.032 0.186386L234.399 0.208374L239.191 8.17622C242.284 8.54486 245.368 9.0706 248.369 9.74088L255.575 3.82994L255.927 3.93048C257.957 4.51906 259.998 5.17778 261.989 5.89308L262.332 6.01566L264.684 15.0161C267.51 16.2289 270.319 17.6103 273.045 19.1205L281.624 15.4748L281.934 15.6717C283.664 16.7714 285.438 17.9841 287.207 19.2776L287.503 19.4933L287.214 28.7839C289.569 30.7329 291.868 32.839 294.056 35.0499L303.325 33.9617L303.565 34.2361C304.969 35.8405 306.322 37.4884 307.623 39.1772L307.846 39.4684L304.944 48.2939C306.667 50.8378 308.286 53.5084 309.76 56.2387L318.961 57.7971L319.113 58.127C319.998 60.0351 320.836 62.0041 321.601 63.9803L321.733 64.3207L316.45 71.9869C317.395 74.9633 318.195 77.9848 318.822 80.9759L327.194 85.0457L327.247 85.4091C327.554 87.5131 327.795 89.6262 327.971 91.7452L328 92.1086L320.764 97.9777C320.779 98.65 320.788 99.3234 320.788 100C320.788 102.376 320.691 104.809 320.502 107.238L327.398 113.509L327.349 113.871C327.043 116.056 326.682 118.166 326.278 120.147L326.204 120.504L317.6 124.105C316.789 127.098 315.829 130.048 314.722 132.946L319.565 140.897L319.414 141.231C318.574 143.077 317.627 144.998 316.593 146.934L316.422 147.256L307.152 148.293C305.55 150.894 303.781 153.464 301.891 155.944L304.293 164.929L304.052 165.206C302.691 166.78 301.233 168.362 299.715 169.909L299.461 170.171L290.279 168.563C287.98 170.637 285.58 172.595 283.087 174.431L282.851 183.734L282.542 183.934C280.755 185.09 278.931 186.188 277.073 187.228L276.754 187.407L268.402 183.286C265.602 184.638 262.735 185.848 259.813 186.912L256.96 195.762L256.608 195.865C254.519 196.483 252.444 197.029 250.44 197.485L250.083 197.566L243.217 191.253C240.163 191.754 237.059 192.107 233.978 192.3L228.74 199.987L227.999 200Z" fill="#93ACD9"/>
<path d="M228.002 73.0011C221.061 73.0011 214.125 75.6319 208.841 80.8977C203.724 85.9991 200.905 92.7845 200.905 99.9993C200.905 107.214 203.724 113.996 208.841 119.099C213.959 124.2 220.763 127.011 228.002 127.011C235.238 127.011 242.043 124.2 247.161 119.099C257.725 108.566 257.725 91.4314 247.161 80.8977C241.879 75.634 234.939 73.0011 228.002 73.0011ZM228.002 128.106C220.47 128.106 213.39 125.181 208.066 119.871C202.741 114.563 199.808 107.506 199.808 99.9993C199.808 92.4923 202.741 85.4346 208.066 80.1258C219.057 69.1701 236.944 69.1701 247.935 80.1258C258.928 91.0858 258.928 108.915 247.935 119.871C242.611 125.181 235.531 128.106 228.002 128.106ZM190.128 150.879C201.149 159.047 214.23 163.362 228.002 163.362C241.773 163.362 254.852 159.047 265.872 150.879C262.544 147.235 262.646 141.573 266.176 138.055C267.933 136.3 270.275 135.333 272.765 135.333C275.108 135.333 277.32 136.19 279.04 137.753C287.232 126.769 291.562 113.73 291.562 99.9993C291.562 86.2672 287.232 73.2283 279.04 62.2454C277.32 63.8079 275.108 64.6646 272.765 64.6646C270.275 64.6646 267.933 63.7 266.176 61.9437C264.415 60.1905 263.445 57.8561 263.445 55.374C263.445 53.0396 264.305 50.833 265.872 49.1206C254.855 40.9517 241.775 36.6368 228.002 36.6368C214.227 36.6368 201.146 40.9517 190.128 49.1206C191.699 50.8372 192.556 53.0396 192.556 55.374C192.556 57.8561 191.586 60.1905 189.827 61.9437C186.295 65.4637 180.615 65.5621 176.962 62.2454C168.768 73.2283 164.442 86.2693 164.442 99.9993C164.442 113.729 168.768 126.769 176.962 137.753C180.616 134.437 186.297 134.535 189.827 138.055C193.357 141.573 193.457 147.235 190.128 150.879ZM228.002 164.454C213.775 164.454 200.273 159.928 188.955 151.367L188.449 150.984L189.037 150.431C192.257 147.223 192.257 142.023 189.05 138.827C185.844 135.633 180.627 135.633 177.422 138.827C177.378 138.889 177.346 138.929 177.309 138.968L176.864 139.439L176.473 138.923C167.883 127.643 163.344 114.183 163.344 99.9993C163.344 85.8158 167.883 72.3549 176.473 61.0755L176.856 60.5707L177.412 61.1572C180.627 64.3651 185.844 64.3651 189.051 61.1708C190.604 59.624 191.459 57.565 191.459 55.374C191.459 53.1841 190.604 51.1262 189.05 49.5772C188.989 49.5322 188.948 49.5008 188.91 49.4652L188.438 49.0222L188.955 48.6326C200.271 40.0699 213.772 35.5445 228.002 35.5445C242.23 35.5445 255.731 40.0699 267.046 48.6326L267.558 49.018L266.968 49.5657C265.396 51.1262 264.543 53.1841 264.543 55.374C264.543 57.565 265.396 59.624 266.95 61.1708C268.503 62.7198 270.567 63.5702 272.765 63.5702C274.963 63.5702 277.027 62.7198 278.58 61.1708C278.625 61.109 278.659 61.0661 278.696 61.0263L279.141 60.5644L279.528 61.0755C288.117 72.3549 292.658 85.8137 292.658 99.9993C292.658 114.185 288.117 127.643 279.528 138.923L279.135 139.443L278.595 138.849C277.027 137.278 274.963 136.427 272.765 136.427C270.567 136.427 268.503 137.278 266.95 138.827C263.746 142.023 263.746 147.223 266.95 150.42C267.012 150.464 267.059 150.502 267.102 150.545L267.549 150.988L267.046 151.367C255.729 159.928 242.228 164.454 228.002 164.454Z" fill="#D3D7DC"/>
<path d="M228 77.0001C221.838 77.0001 216.045 79.3922 211.687 83.7364C207.328 88.0816 204.928 93.8553 204.928 99.9998C204.928 106.143 207.328 111.918 211.686 116.262C216.045 120.607 221.838 122.999 228 122.999C234.163 122.999 239.956 120.607 244.314 116.262H244.315C248.671 111.918 251.072 106.143 251.072 99.9998C251.072 93.8553 248.671 88.0816 244.315 83.7364C239.956 79.3922 234.163 77.0001 228 77.0001ZM228 124.094C221.545 124.094 215.476 121.587 210.91 117.034C206.346 112.485 203.833 106.435 203.833 99.9998C203.833 93.5642 206.346 87.515 210.912 82.9645C215.476 78.4119 221.545 75.9057 228 75.9057C234.455 75.9057 240.525 78.4119 245.09 82.9645C249.655 87.515 252.169 93.5642 252.169 99.9998C252.169 106.435 249.655 112.485 245.089 117.034C240.525 121.587 234.455 124.094 228 124.094ZM208.842 80.8982C203.723 85.9995 200.905 92.785 200.905 99.9998C200.905 107.215 203.723 113.997 208.841 119.099C213.958 124.201 220.763 127.012 228.001 127.012C235.238 127.012 242.042 124.201 247.161 119.099C257.724 108.567 257.724 91.4319 247.161 80.8982C236.594 70.3686 219.405 70.3686 208.841 80.8982H208.842ZM228.001 128.106C220.47 128.106 213.39 125.181 208.065 119.871C202.74 114.564 199.808 107.507 199.808 99.9998C199.808 92.4928 202.74 85.4351 208.065 80.1263C219.057 69.1706 236.944 69.1706 247.935 80.1263C258.927 91.0863 258.927 108.915 247.935 119.871C242.611 125.181 235.531 128.106 228.001 128.106ZM279.488 61.784L278.695 61.0268C281.81 57.7781 281.759 52.7479 278.579 49.5777C275.396 46.4086 270.351 46.3573 267.095 49.4636L266.335 48.6718C270.03 45.1529 275.748 45.2105 279.354 48.8059C282.96 52.3991 283.02 58.1006 279.488 61.784ZM183.216 153.928C180.842 153.928 178.474 153.015 176.646 151.194C173.099 147.659 173.04 141.837 176.512 138.216L177.306 138.973C174.19 142.222 174.24 147.25 177.422 150.421C180.6 153.592 185.646 153.641 188.907 150.537L189.665 151.327C187.843 153.064 185.526 153.928 183.216 153.928ZM176.512 61.784C172.981 58.1006 173.04 52.3991 176.646 48.8059C180.25 45.2126 185.971 45.1529 189.665 48.6718L188.907 49.4636C185.647 46.3573 180.602 46.4065 177.422 49.5777C174.241 52.7489 174.191 57.7781 177.306 61.0268L176.512 61.784ZM272.785 153.928C270.472 153.928 268.158 153.064 266.335 151.327L267.095 150.537C270.351 153.641 275.396 153.593 278.579 150.421C281.759 147.25 281.81 142.222 278.695 138.973L279.488 138.216C282.96 141.837 282.9 147.659 279.354 151.194C277.527 153.015 275.158 153.928 272.785 153.928Z" fill="#39B449"/>
<path d="M228 81.9323C232.473 81.9323 236.945 83.5661 240.428 86.8378L243.921 83.3534C239.611 79.2512 233.978 76.9995 228 76.9995C222.021 76.9995 216.389 79.2512 212.078 83.3534L215.572 86.8357C219.054 83.566 223.527 81.9323 228 81.9323ZM241.203 112.389L244.696 115.87C248.812 111.574 251.071 105.959 251.071 99.9992C251.071 94.038 248.812 88.4245 244.696 84.1274L241.203 87.6107C244.386 90.9757 246.131 95.3523 246.131 99.9992C246.131 104.643 244.386 109.023 241.203 112.389ZM211.303 84.1274C207.188 88.4245 204.928 94.038 204.928 99.9992C204.928 105.959 207.188 111.574 211.303 115.87L214.797 112.389C211.613 109.023 209.868 104.643 209.868 99.9992C209.868 95.3523 211.613 90.9757 214.797 87.6107L211.303 84.1274ZM228.001 83.0246C223.637 83.0246 219.274 84.6804 215.953 87.9909C212.737 91.1977 210.964 95.4623 210.964 99.9992C210.964 104.535 212.737 108.8 215.954 112.007C222.592 118.622 233.39 118.627 240.032 112.02L240.044 112.007C243.262 108.8 245.035 104.535 245.035 99.9992C245.035 95.4623 243.262 91.1977 240.046 87.9909L240.03 87.9752C236.711 84.6762 232.355 83.0246 228.001 83.0246ZM212.078 116.644C216.389 120.746 222.021 122.999 228 122.999C233.978 122.999 239.612 120.746 243.921 116.644L240.428 113.16C233.463 119.703 222.536 119.701 215.572 113.162L212.078 116.644ZM228 124.093C221.545 124.093 215.476 121.586 210.91 117.033C206.345 112.484 203.832 106.435 203.832 99.9992C203.832 93.5636 206.345 87.5144 210.911 82.9639C215.476 78.4113 221.545 75.9051 228 75.9051C234.454 75.9051 240.525 78.4113 245.089 82.9639C249.654 87.5144 252.168 93.5636 252.168 99.9992C252.168 106.435 249.654 112.484 245.088 117.033C240.525 121.586 234.454 124.093 228 124.093Z" fill="#39B449"/>
<path d="M228 83.0253C223.636 83.0253 219.274 84.6811 215.952 87.9916C212.736 91.1984 210.964 95.463 210.964 99.9999C210.964 104.536 212.736 108.8 215.953 112.008C222.595 118.626 233.401 118.628 240.045 112.008H240.044C243.262 108.8 245.034 104.536 245.034 99.9999C245.034 95.463 243.262 91.1984 240.045 87.9916C236.724 84.6811 232.362 83.0253 228 83.0253ZM228 118.068C223.356 118.068 218.713 116.304 215.177 112.781C211.753 109.366 209.867 104.827 209.867 99.9999C209.867 95.1708 211.753 90.6319 215.178 87.2198C222.118 80.2992 233.33 80.1735 240.428 86.8385L240.433 86.8323L240.806 87.2019C240.81 87.2082 240.815 87.2135 240.822 87.2198L241.208 87.6052L241.203 87.6114C244.385 90.9764 246.131 95.3531 246.131 99.9999C246.131 104.827 244.245 109.366 240.822 112.781C240.815 112.786 240.812 112.791 240.807 112.795L240.433 113.169L240.428 113.16C236.945 116.432 232.472 118.068 228 118.068Z" fill="#39B449"/>
<path d="M420.42 157V133.03H355.14V121.98L413.96 36.81H435.21V119.6H449.32V133.03H435.21V157H420.42ZM372.99 119.6H420.42V50.24L372.99 119.6Z" fill="#93ACD9"/>
</svg>
