<svg width="110" height="17" viewBox="0 0 110 17" fill="none" xmlns="http://www.w3.org/2000/svg">
<path d="M7.60912 16.11C6.59712 16.11 5.62912 15.934 4.70512 15.582C3.79578 15.2153 2.98912 14.6873 2.28511 13.998C1.58111 13.294 1.02378 12.4507 0.613115 11.468C0.217115 10.4707 0.019115 9.334 0.019115 8.058C0.019115 6.958 0.224448 5.93867 0.635115 5C1.04578 4.06133 1.61045 3.24 2.32912 2.536C3.06245 1.81733 3.91312 1.26 4.88112 0.863999C5.84912 0.467999 6.89778 0.269999 8.02712 0.269999C9.43512 0.269999 10.7111 0.577999 11.8551 1.194C12.9991 1.79533 13.8498 2.624 14.4071 3.68L11.2171 6.122C10.9091 5.506 10.4471 5.01467 9.83112 4.648C9.21512 4.26667 8.56245 4.076 7.87312 4.076C7.35978 4.076 6.89045 4.17867 6.46512 4.384C6.03978 4.58933 5.66578 4.87533 5.34312 5.242C5.03512 5.60867 4.79312 6.04867 4.61712 6.562C4.45578 7.06067 4.37512 7.61067 4.37512 8.212C4.37512 8.828 4.46312 9.38533 4.63912 9.884C4.81512 10.3827 5.05712 10.8153 5.36511 11.182C5.68778 11.534 6.06912 11.8127 6.50912 12.018C6.94912 12.2087 7.44045 12.304 7.98312 12.304C8.67245 12.304 9.33245 12.1353 9.96312 11.798C10.5938 11.446 11.1658 10.9547 11.6791 10.324V14.504C10.5058 15.5747 9.14912 16.11 7.60912 16.11ZM11.4591 10.764H8.57712V7.684H15.0011V16H11.4591V10.764ZM17.5588 16V0.379999H24.7308C25.4935 0.379999 26.1975 0.533999 26.8428 0.842C27.4881 1.15 28.0455 1.568 28.5148 2.096C28.9841 2.60933 29.3435 3.18867 29.5928 3.834C29.8568 4.47933 29.9888 5.132 29.9888 5.792C29.9888 6.39333 29.9008 6.97267 29.7248 7.53C29.5488 8.08733 29.2921 8.60067 28.9548 9.07C28.6175 9.52467 28.2141 9.92067 27.7448 10.258L31.0448 16H26.3368L23.5868 11.204H21.8488V16H17.5588ZM21.8488 7.464H24.5548C24.7308 7.464 24.8995 7.398 25.0608 7.266C25.2221 7.134 25.3541 6.94333 25.4568 6.694C25.5741 6.44467 25.6328 6.144 25.6328 5.792C25.6328 5.42533 25.5668 5.12467 25.4348 4.89C25.3175 4.64067 25.1635 4.45 24.9728 4.318C24.7968 4.186 24.6208 4.12 24.4448 4.12H21.8488V7.464ZM36.4525 0.379999H41.2485L46.2205 16H41.8645L40.9185 12.942H36.7605L35.8365 16H31.4585L36.4525 0.379999ZM40.2365 10.082L38.8505 4.582L37.3985 10.082H40.2365ZM59.7723 16V7.772L57.1543 13.558H54.8663L52.2483 7.772V16H47.9583V0.379999H52.6443L56.0103 7.728L59.3983 0.379999H64.0623V16H59.7723ZM67.1757 16V0.379999H73.9077C74.6703 0.379999 75.3743 0.533999 76.0197 0.842C76.665 1.15 77.2223 1.568 77.6917 2.096C78.161 2.60933 78.5203 3.18867 78.7697 3.834C79.0337 4.47933 79.1657 5.132 79.1657 5.792C79.1657 6.716 78.9457 7.58867 78.5057 8.41C78.0803 9.23133 77.479 9.906 76.7017 10.434C75.939 10.9473 75.0443 11.204 74.0177 11.204H71.4657V16H67.1757ZM71.4657 7.464H73.7317C73.9077 7.464 74.0763 7.41267 74.2377 7.31C74.399 7.20733 74.531 7.03133 74.6337 6.782C74.751 6.53267 74.8097 6.20267 74.8097 5.792C74.8097 5.352 74.7437 5.01467 74.6117 4.78C74.4943 4.53067 74.3403 4.362 74.1497 4.274C73.9737 4.17133 73.7977 4.12 73.6217 4.12H71.4657V7.464ZM88.1427 16.132C86.896 16.132 85.8254 15.9267 84.9307 15.516C84.036 15.1053 83.3027 14.5407 82.7307 13.822C82.1734 13.1033 81.7627 12.282 81.4987 11.358C81.2347 10.4193 81.1027 9.43667 81.1027 8.41V0.379999H85.3927V8.41C85.3927 8.92333 85.444 9.41467 85.5467 9.884C85.6494 10.3533 85.8107 10.7713 86.0307 11.138C86.2507 11.5047 86.5294 11.798 86.8667 12.018C87.2187 12.2233 87.644 12.326 88.1427 12.326C88.656 12.326 89.0887 12.2233 89.4407 12.018C89.7927 11.798 90.0714 11.5047 90.2767 11.138C90.4967 10.7567 90.658 10.3313 90.7607 9.862C90.8634 9.39267 90.9147 8.90867 90.9147 8.41V0.379999H95.2047V8.41C95.2047 9.49533 95.058 10.5073 94.7647 11.446C94.486 12.3847 94.0607 13.206 93.4887 13.91C92.9167 14.614 92.1834 15.164 91.2887 15.56C90.4087 15.9413 89.36 16.132 88.1427 16.132ZM107.572 5.484C107.572 5.484 107.448 5.41067 107.198 5.264C106.949 5.11733 106.619 4.956 106.208 4.78C105.798 4.58933 105.35 4.42067 104.866 4.274C104.382 4.12733 103.906 4.054 103.436 4.054C103.07 4.054 102.769 4.11267 102.534 4.23C102.3 4.34733 102.182 4.54533 102.182 4.824C102.182 5.088 102.3 5.30067 102.534 5.462C102.769 5.62333 103.099 5.77 103.524 5.902C103.964 6.034 104.485 6.19533 105.086 6.386C106.054 6.67933 106.89 7.01667 107.594 7.398C108.298 7.77933 108.841 8.27067 109.222 8.872C109.604 9.45867 109.794 10.2433 109.794 11.226C109.794 12.1647 109.626 12.9567 109.288 13.602C108.951 14.2327 108.496 14.7387 107.924 15.12C107.352 15.5013 106.714 15.78 106.01 15.956C105.306 16.1173 104.588 16.198 103.854 16.198C103.106 16.198 102.322 16.1247 101.5 15.978C100.694 15.8167 99.909 15.604 99.1463 15.34C98.3836 15.0613 97.687 14.7387 97.0563 14.372L98.9043 10.61C98.9043 10.61 99.051 10.698 99.3443 10.874C99.6376 11.05 100.026 11.248 100.51 11.468C100.994 11.688 101.53 11.886 102.116 12.062C102.718 12.238 103.319 12.326 103.92 12.326C104.39 12.326 104.712 12.2673 104.888 12.15C105.079 12.018 105.174 11.8493 105.174 11.644C105.174 11.336 105.013 11.1013 104.69 10.94C104.368 10.764 103.942 10.6027 103.414 10.456C102.901 10.2947 102.329 10.1113 101.698 9.906C100.789 9.598 100.041 9.25333 99.4543 8.872C98.8676 8.476 98.435 8.014 98.1563 7.486C97.8776 6.94333 97.7383 6.29067 97.7383 5.528C97.7383 4.36933 98.0096 3.40133 98.5523 2.624C99.095 1.84667 99.8063 1.26 100.686 0.863999C101.581 0.453333 102.542 0.248 103.568 0.248C104.331 0.248 105.064 0.343333 105.768 0.534C106.487 0.709999 107.154 0.929999 107.77 1.194C108.401 1.458 108.951 1.70733 109.42 1.942L107.572 5.484Z" fill="#979CA4"/>
</svg>
