<svg width="16" height="17" viewBox="0 0 16 17" fill="none" xmlns="http://www.w3.org/2000/svg">
<path fill-rule="evenodd" clip-rule="evenodd" d="M14.0001 3C14.0001 2.86739 13.9475 2.74021 13.8537 2.64645C13.7599 2.55268 13.6328 2.5 13.5001 2.5H7.50014C7.36753 2.5 7.24036 2.55268 7.14659 2.64645C7.05282 2.74021 7.00014 2.86739 7.00014 3C7.00014 3.13261 7.05282 3.25979 7.14659 3.35355C7.24036 3.44732 7.36753 3.5 7.50014 3.5H12.2931L2.14614 13.646C2.09966 13.6925 2.06278 13.7477 2.03762 13.8084C2.01246 13.8692 1.99951 13.9343 1.99951 14C1.99951 14.0657 2.01246 14.1308 2.03762 14.1916C2.06278 14.2523 2.09966 14.3075 2.14614 14.354C2.19263 14.4005 2.24782 14.4374 2.30856 14.4625C2.3693 14.4877 2.4344 14.5006 2.50014 14.5006C2.56589 14.5006 2.63099 14.4877 2.69173 14.4625C2.75247 14.4374 2.80766 14.4005 2.85414 14.354L13.0001 4.207V9C13.0001 9.13261 13.0528 9.25979 13.1466 9.35355C13.2404 9.44732 13.3675 9.5 13.5001 9.5C13.6328 9.5 13.7599 9.44732 13.8537 9.35355C13.9475 9.25979 14.0001 9.13261 14.0001 9V3Z" fill="#979CA4"/>
</svg>
