<svg width="30" height="14" viewBox="0 0 30 14" fill="none" xmlns="http://www.w3.org/2000/svg">
<path d="M24.9192 0.666864C24.7173 0.426716 24.4063 0.448347 24.2246 0.715178C24.0429 0.98201 24.0593 1.393 24.2612 1.63315L28.2266 6.35H0.491803C0.220188 6.35 0 6.64102 0 7C0 7.35898 0.220187 7.65 0.491803 7.65H28.2266L24.2612 12.3669C24.0593 12.607 24.0429 13.018 24.2246 13.2848C24.4063 13.5517 24.7173 13.5733 24.9192 13.3331L29.8372 7.48314C29.9408 7.35987 30 7.18427 30 7C30 6.81573 29.9408 6.64013 29.8372 6.51686L24.9192 0.666864Z" fill="white"/>
</svg>
